<?xml version="1.0" standalone="no"?>
<!DOCTYPE svg PUBLIC "-//W3C//DTD SVG 20010904//EN"
 "http://www.w3.org/TR/2001/REC-SVG-20010904/DTD/svg10.dtd">
<svg version="1.0" xmlns="http://www.w3.org/2000/svg"
 width="2048.000000pt" height="2048.000000pt" viewBox="0 0 2048.000000 2048.000000"
 preserveAspectRatio="xMidYMid meet">
<metadata>
Created by potrace 1.14, written by Peter Selinger 2001-2017
</metadata>
<g transform="translate(0.000000,2048.000000) scale(0.100000,-0.100000)"
fill="#000000" stroke="none">
<path d="M11344 16846 c-71 -32 -115 -97 -114 -169 2 -104 3 -127 10 -127 3 0
6 -10 7 -22 0 -21 9 -103 19 -183 2 -16 4 -45 5 -62 1 -18 5 -33 8 -33 3 0 7
-30 8 -68 1 -37 5 -98 9 -137 4 -38 8 -103 8 -142 1 -40 4 -73 7 -73 3 0 5
-15 4 -32 0 -18 2 -48 6 -65 4 -18 3 -33 -1 -33 -5 0 -5 -12 -1 -27 14 -51 22
-533 9 -550 -5 -6 -5 -13 -1 -16 4 -3 7 -27 6 -54 -2 -26 -3 -87 -2 -135 0
-50 -4 -89 -11 -93 -7 -4 -7 -12 0 -24 5 -10 7 -21 5 -23 -3 -3 -8 -43 -10
-89 -6 -88 -9 -119 -21 -234 -4 -38 -8 -85 -8 -102 -1 -18 -3 -33 -6 -33 -6 0
-7 -7 -11 -87 -2 -23 -5 -40 -8 -38 -4 2 -6 -9 -7 -23 0 -15 -4 -47 -8 -72 -5
-25 -10 -61 -12 -80 -5 -43 -11 -75 -13 -75 -1 0 -4 -11 -6 -25 -6 -32 -13
-65 -15 -65 -1 0 -3 -11 -5 -25 -3 -19 -41 -183 -59 -255 -2 -5 -6 -27 -11
-47 -4 -21 -11 -38 -15 -38 -4 0 -6 -11 -5 -25 2 -14 -1 -25 -6 -25 -4 0 -6
-7 -3 -15 4 -8 2 -15 -4 -15 -6 0 -9 -8 -8 -17 2 -10 -1 -25 -5 -33 -8 -15
-97 -282 -104 -311 -2 -9 -8 -25 -13 -35 -6 -11 -18 -41 -27 -69 -19 -53 -25
-69 -74 -184 -17 -40 -31 -80 -31 -87 0 -8 -4 -14 -10 -14 -5 0 -9 -3 -8 -7 1
-5 -7 -26 -17 -48 -10 -22 -19 -42 -20 -45 -3 -10 -58 -128 -106 -227 -27 -57
-49 -106 -49 -109 1 -4 -2 -10 -7 -13 -4 -3 -31 -51 -59 -106 -93 -184 -177
-340 -186 -346 -5 -3 -10 -16 -11 -27 -1 -12 -5 -22 -9 -22 -4 0 -19 -25 -33
-55 -15 -30 -30 -55 -34 -55 -4 0 -8 -6 -8 -12 0 -11 -51 -107 -84 -158 -5 -8
-14 -27 -20 -42 -6 -16 -16 -28 -22 -28 -6 0 -7 -3 -4 -7 4 -3 3 -11 -2 -17
-5 -6 -28 -47 -52 -91 -23 -44 -47 -83 -53 -87 -6 -4 -7 -8 -2 -8 5 0 4 -6 -2
-12 -5 -7 -25 -42 -44 -78 -19 -36 -44 -82 -56 -102 -12 -21 -19 -38 -15 -38
3 0 -2 -9 -12 -20 -10 -11 -14 -20 -9 -20 5 0 4 -4 -1 -8 -6 -4 -29 -43 -50
-87 -22 -44 -43 -81 -47 -83 -5 -2 -8 -9 -8 -15 0 -7 -18 -48 -39 -92 -72
-147 -115 -240 -117 -250 -2 -9 -26 -64 -80 -182 -8 -17 -14 -33 -14 -36 0 -2
-7 -22 -16 -43 -9 -22 -15 -39 -13 -39 1 0 -4 -11 -11 -25 -8 -14 -15 -29 -16
-35 -1 -5 -8 -23 -15 -40 -6 -16 -13 -35 -14 -41 -6 -27 -49 -140 -58 -152 -5
-7 -7 -15 -3 -19 3 -3 -1 -17 -9 -30 -9 -13 -13 -23 -10 -23 2 0 0 -12 -6 -27
-6 -16 -12 -35 -14 -43 -15 -60 -38 -137 -43 -145 -4 -5 -7 -14 -8 -20 -1 -5
-10 -39 -19 -75 -10 -36 -18 -72 -18 -80 0 -8 -3 -19 -7 -25 -7 -9 -21 -72
-23 -102 0 -7 -4 -13 -9 -13 -5 0 -7 -4 -4 -8 3 -5 -1 -34 -8 -65 -7 -31 -11
-59 -8 -62 3 -3 1 -5 -4 -5 -6 0 -10 -10 -10 -22 0 -20 -10 -80 -29 -178 -2
-13 -7 -42 -10 -65 -4 -22 -9 -53 -12 -70 -2 -16 -6 -43 -8 -60 -2 -16 -6 -55
-10 -85 -4 -30 -8 -68 -10 -85 -1 -16 -4 -30 -5 -30 -1 0 -3 -29 -5 -65 -2
-36 -4 -65 -5 -65 -3 0 -12 -174 -13 -247 -1 -38 -4 -68 -8 -68 -3 0 -6 -7 -6
-15 0 -8 4 -15 9 -15 5 0 4 -9 -2 -19 -7 -13 -7 -22 0 -26 5 -3 10 -11 10 -16
0 -6 -3 -8 -7 -6 -5 3 -8 -6 -8 -19 0 -13 4 -24 8 -24 5 0 5 -6 0 -12 -10 -16
-11 -268 -1 -262 4 3 6 -1 3 -8 -9 -27 -13 -68 -7 -68 11 0 8 -64 -3 -72 -7
-5 -6 -11 1 -15 5 -5 11 -42 12 -83 2 -153 7 -210 15 -210 4 0 3 -9 -3 -20 -6
-11 -7 -20 -3 -20 5 0 8 -24 8 -52 -1 -29 1 -57 4 -63 3 -5 5 -27 5 -50 1 -22
5 -46 9 -53 5 -7 4 -12 -3 -12 -6 0 -8 -5 -3 -13 4 -6 8 -21 9 -32 3 -46 15
-164 19 -186 3 -13 7 -49 10 -79 3 -30 8 -68 12 -85 3 -16 6 -51 7 -77 0 -25
4 -44 8 -42 4 3 7 -4 6 -13 -1 -29 10 -91 18 -104 5 -8 3 -9 -7 -4 -11 7 -12
6 -2 -6 6 -8 14 -39 17 -69 2 -30 9 -69 14 -86 6 -19 6 -37 0 -48 -6 -11 -6
-16 2 -14 11 3 14 -9 24 -82 2 -14 6 -41 10 -60 4 -19 8 -46 10 -60 2 -14 6
-32 9 -40 5 -13 10 -36 23 -110 2 -14 5 -26 20 -100 3 -14 7 -38 10 -55 2 -16
13 -46 23 -66 11 -20 19 -39 18 -41 -1 -1 0 -2 2 -1 2 1 12 -7 24 -18 11 -10
27 -19 35 -19 9 0 12 -6 8 -15 -4 -13 -2 -13 14 -5 15 8 21 6 29 -7 6 -10 11
-13 11 -8 0 6 15 10 33 10 17 -1 38 3 45 8 8 6 12 5 12 -4 0 -11 2 -11 10 1 9
13 10 13 10 0 0 -13 1 -13 10 0 9 13 10 13 10 0 0 -13 1 -13 10 0 5 8 10 11
10 5 0 -5 5 -3 10 5 8 12 10 12 10 1 0 -11 3 -11 15 -1 8 7 15 9 15 5 0 -4 6
-2 14 4 10 8 16 9 21 1 3 -6 12 -7 18 -3 21 13 47 13 47 0 0 -8 4 -7 10 3 5 8
14 16 20 16 5 1 11 2 13 4 1 1 16 3 32 4 17 1 37 4 45 7 9 2 14 -2 12 -11 -1
-10 2 -9 13 4 8 11 15 17 15 14 0 -4 14 -3 30 2 21 6 30 5 30 -3 0 -8 3 -8 9
1 4 8 17 13 27 11 11 -1 27 1 37 6 9 4 26 5 37 2 11 -3 18 -1 14 4 -3 5 -2 9
3 10 4 1 20 2 34 3 14 2 32 6 39 11 9 6 11 4 5 -6 -8 -12 -6 -12 8 0 9 7 17
10 17 6 0 -4 7 -2 15 5 8 7 24 10 35 7 11 -3 20 -1 20 5 0 5 8 8 18 7 9 -1 19
0 22 1 15 5 48 12 68 13 12 0 22 5 22 10 0 5 7 7 15 3 8 -3 15 -1 15 4 0 6 10
6 26 0 14 -6 23 -6 20 -1 -5 8 39 26 56 23 3 -1 64 14 135 34 70 19 135 36
143 37 8 2 21 7 29 11 9 6 12 5 8 -1 -4 -6 10 -2 30 8 20 10 40 16 44 13 5 -3
9 1 9 8 0 9 3 9 10 -2 7 -11 10 -11 10 -2 0 7 5 10 11 6 6 -3 14 -2 18 4 3 6
18 13 31 15 14 2 32 7 40 10 14 5 89 30 100 32 3 1 18 7 34 14 22 9 32 9 42 0
12 -10 13 -9 8 5 -4 12 -1 16 14 16 12 0 24 5 27 11 4 6 13 8 21 5 8 -3 14 -1
14 4 0 5 7 7 15 4 8 -4 15 -2 15 4 0 15 37 21 51 8 9 -8 10 -8 6 0 -8 15 56
43 105 47 9 1 14 5 12 9 -5 7 13 12 43 11 7 -1 10 3 7 8 -3 5 4 9 15 9 12 0
21 5 21 10 0 6 9 10 19 10 11 0 23 5 26 10 4 6 11 8 16 5 5 -4 9 -2 9 4 0 6 6
8 14 5 7 -3 20 1 27 8 16 15 35 21 65 22 15 1 20 6 16 16 -3 8 -2 12 2 8 4 -3
30 5 57 18 27 14 54 22 61 18 7 -4 8 -3 4 4 -6 11 6 16 27 13 4 0 7 4 7 10 0
6 7 9 15 5 8 -3 15 -1 15 4 0 6 6 10 14 10 8 0 17 6 19 13 4 8 6 8 6 -3 1 -10
6 -7 17 8 8 12 20 20 25 17 5 -4 9 -1 9 6 0 7 3 9 7 6 3 -4 12 -2 20 4 7 6 13
8 13 5 0 -4 10 3 23 14 13 13 31 20 44 17 16 -3 20 0 15 11 -3 10 -1 13 6 8 7
-4 15 -1 18 8 3 9 10 16 16 16 5 0 6 -6 3 -12 -4 -7 0 -5 8 4 8 10 17 15 20
11 4 -3 7 -1 7 5 0 7 7 12 15 12 8 0 15 4 15 10 0 5 12 13 27 16 15 4 36 16
48 26 11 11 28 17 37 14 10 -2 16 -1 14 2 -5 9 15 26 34 30 8 2 17 8 18 13 2
5 8 7 13 3 5 -3 9 0 9 5 0 6 7 11 15 11 8 0 15 5 15 10 0 6 5 10 10 10 6 0 33
16 61 35 27 20 61 40 75 45 13 5 24 13 24 17 0 5 17 17 38 28 20 11 46 28 56
37 20 18 32 22 51 18 6 -1 7 1 3 5 -8 8 16 35 31 35 6 0 20 10 32 23 12 12 19
15 15 7 -4 -8 1 -5 11 8 14 16 21 20 30 11 8 -8 13 -7 18 2 5 8 4 10 -3 5 -7
-4 -12 -3 -12 3 0 14 35 32 45 23 5 -4 5 -2 2 4 -4 7 11 24 33 39 22 15 40 32
40 38 0 6 3 8 6 4 4 -3 12 -1 19 6 7 7 30 26 50 42 21 17 44 36 51 43 7 6 18
12 24 12 6 0 8 5 4 12 -5 8 -2 9 9 5 10 -3 17 -2 17 3 0 12 37 50 49 50 5 0
12 7 15 16 3 9 13 14 21 10 8 -3 17 0 21 6 4 7 3 8 -4 4 -7 -4 -12 -2 -12 3 0
6 4 11 9 11 4 0 26 18 47 39 21 22 42 37 46 35 5 -3 7 0 6 8 -2 7 3 12 10 10
6 -1 12 4 12 11 0 8 11 20 25 27 13 7 21 18 18 23 -4 6 0 8 11 4 9 -4 15 -3
12 2 -7 11 49 63 58 54 4 -5 6 -3 4 2 -1 6 9 26 25 44 24 29 30 31 45 20 15
-13 16 -12 3 4 -9 11 -10 17 -2 17 6 0 11 7 11 15 0 14 12 20 33 16 5 -1 6 3
2 9 -4 6 14 31 39 55 25 25 43 45 41 45 -3 0 11 16 30 36 19 20 35 40 35 46 0
6 7 8 14 5 10 -4 13 -1 10 7 -3 8 5 21 18 30 12 9 18 16 13 16 -6 0 -2 5 8 11
9 5 17 17 17 25 0 8 5 12 10 9 6 -3 10 -2 10 4 0 5 21 37 48 70 26 33 60 78
76 100 16 22 33 38 37 35 5 -3 6 2 3 10 -4 9 1 18 10 22 9 3 16 11 16 16 0 19
42 68 52 62 6 -4 8 -2 5 4 -9 13 2 42 15 42 5 0 6 -5 2 -12 -4 -7 -3 -8 5 -4
6 4 9 11 6 16 -6 10 11 43 38 74 9 11 17 25 17 32 0 6 7 15 16 18 8 3 12 10 9
16 -3 5 -3 10 2 10 4 0 17 18 27 40 11 22 23 40 28 40 5 0 6 5 3 10 -3 6 -1
10 4 10 6 0 11 5 11 11 0 6 7 17 15 26 8 8 13 19 10 24 -4 5 -1 9 4 9 6 0 11
-5 11 -12 0 -6 3 -8 6 -5 4 4 2 13 -4 20 -9 10 -7 16 8 27 10 7 17 17 14 21
-3 5 4 17 16 29 11 11 19 21 18 23 -4 5 27 67 34 67 4 0 4 7 1 17 -4 11 -3 14
5 9 7 -4 12 -2 12 5 0 18 40 99 49 99 4 0 7 10 8 22 1 11 8 25 15 29 7 5 10 9
6 9 -4 0 4 21 17 46 14 26 25 53 25 61 0 8 4 11 10 8 6 -3 7 1 4 9 -4 11 0 16
12 16 16 0 17 2 4 10 -14 9 -7 15 14 11 5 -1 3 6 -5 15 -13 16 -12 17 5 11 16
-6 17 -5 6 8 -8 10 -9 15 -1 15 6 0 10 3 9 8 -4 15 14 52 23 47 5 -3 6 0 4 8
-3 7 2 31 12 53 9 21 16 42 15 47 -1 4 3 7 9 7 5 0 8 4 4 9 -3 5 -1 12 4 15 9
6 25 64 22 80 -1 5 5 6 14 2 13 -4 14 -2 5 14 -10 19 -6 24 13 21 5 -1 5 3 2
9 -4 6 1 21 12 33 17 21 17 21 0 7 -18 -14 -18 -13 -2 25 9 22 23 62 31 88 9
28 19 45 25 41 7 -4 7 1 0 15 -11 20 -8 25 12 22 5 -1 6 3 2 8 -3 6 1 35 10
65 9 31 16 58 16 61 0 2 5 19 10 37 6 18 17 60 25 92 8 33 20 66 27 75 10 12
9 13 -1 7 -11 -7 -12 -4 -3 13 7 11 9 21 7 21 -3 0 1 18 9 40 8 22 12 40 10
40 -2 0 1 15 6 33 5 17 12 47 15 66 3 18 8 43 10 55 3 11 8 37 11 56 3 19 10
38 15 41 7 4 6 9 -1 13 -6 4 -8 12 -5 18 4 5 9 27 11 47 3 20 9 44 14 54 7 12
6 17 -3 17 -8 0 -9 3 -3 8 6 4 11 27 13 52 3 45 9 85 12 85 1 0 3 16 5 35 1
19 5 62 10 95 8 61 12 114 14 173 1 24 5 31 14 26 9 -6 9 -4 1 7 -6 8 -10 23
-8 34 2 11 5 64 6 117 2 54 5 98 8 98 3 0 4 45 2 101 -2 72 0 105 10 117 9 11
9 14 1 8 -10 -5 -13 24 -13 131 0 76 -3 165 -5 198 -11 119 -11 140 0 154 7
11 7 13 -3 7 -9 -6 -12 1 -12 26 1 18 -1 47 -3 63 -5 28 -18 159 -21 215 -1
14 -6 31 -10 38 -4 7 -2 12 6 12 9 0 10 2 2 8 -7 4 -14 32 -17 63 -2 31 -8 62
-12 69 -6 9 -4 11 6 5 12 -7 12 -6 0 9 -12 14 -12 19 -2 25 10 7 10 9 -1 14
-9 3 -14 18 -13 41 0 20 -2 36 -5 36 -3 0 -7 15 -9 33 -4 51 -8 71 -15 88 -4
8 -9 33 -11 55 -2 21 -8 57 -14 79 -5 22 -12 51 -15 65 -20 91 -36 157 -41
173 -5 11 -2 17 6 17 11 0 11 2 0 9 -8 5 -16 15 -17 23 -2 7 -7 28 -13 46 -5
17 -7 32 -4 32 3 0 0 6 -6 13 -6 8 -9 16 -6 19 3 3 -2 21 -10 41 -11 27 -12
37 -3 37 6 0 4 6 -7 14 -12 8 -16 20 -13 34 3 12 3 22 -1 24 -11 5 -43 100
-44 135 -1 17 -5 29 -9 27 -7 -4 -16 20 -21 57 -2 8 -7 21 -12 29 -5 8 -10 20
-10 25 -1 10 -6 23 -26 73 -6 17 -6 21 2 16 6 -3 3 5 -6 19 -9 15 -13 32 -9
38 4 7 3 9 -3 6 -6 -4 -16 13 -23 36 -8 23 -18 47 -23 54 -5 7 -6 17 -2 23 3
5 2 10 -3 10 -12 0 -33 56 -25 64 4 3 1 6 -6 6 -7 0 -10 4 -6 9 3 5 1 12 -5
16 -6 4 -8 11 -5 16 4 5 1 9 -4 9 -6 0 -11 9 -11 19 0 11 -4 23 -10 26 -5 3
-10 15 -10 26 0 10 -4 19 -10 19 -5 0 -10 6 -10 13 0 7 -9 31 -19 54 -11 22
-21 46 -23 54 -2 8 -5 16 -8 19 -10 9 -34 65 -32 73 1 4 -5 15 -13 23 -8 9
-13 19 -10 24 3 5 2 10 -2 12 -11 5 -56 96 -56 113 0 8 -2 13 -5 10 -7 -6 -41
58 -35 68 2 4 0 7 -5 7 -5 0 -15 15 -23 33 -7 17 -17 35 -21 38 -5 3 -10 15
-11 27 0 11 -5 18 -9 16 -4 -3 -8 2 -8 10 0 9 -4 16 -9 16 -8 0 -16 19 -19 43
0 5 -11 17 -23 28 -12 10 -18 19 -14 19 4 0 1 8 -8 18 -10 10 -14 22 -10 25 3
4 1 7 -5 7 -7 0 -12 6 -12 13 0 7 -8 22 -18 33 -17 18 -29 40 -30 57 0 5 -10
17 -21 26 -11 10 -18 21 -14 25 3 3 1 6 -5 6 -7 0 -12 6 -12 13 0 7 -9 23 -20
35 -12 12 -17 22 -13 22 4 0 1 6 -7 13 -8 7 -21 24 -29 40 -8 15 -18 27 -23
27 -4 0 -8 7 -8 15 0 8 -4 15 -10 15 -5 0 -10 5 -10 11 0 6 -7 17 -16 26 -8 9
-13 22 -10 29 3 8 2 13 -2 13 -19 -3 -32 2 -32 13 0 12 -148 211 -162 216 -4
2 -8 8 -8 14 0 6 -10 19 -22 29 -11 11 -18 19 -15 19 3 0 -4 10 -16 23 -12 12
-42 46 -67 76 -25 30 -55 64 -67 76 -12 13 -19 26 -16 29 4 3 -1 6 -10 6 -10
0 -17 4 -17 9 0 11 -288 301 -360 363 -100 85 -110 95 -102 103 4 5 2 5 -4 2
-6 -4 -26 7 -43 22 -30 27 -48 41 -110 88 -13 10 -38 30 -56 46 -18 15 -37 27
-42 27 -5 0 -15 9 -23 20 -8 11 -20 20 -27 20 -7 0 -13 5 -13 11 0 5 -4 8 -8
5 -5 -3 -15 4 -22 15 -8 10 -20 19 -26 19 -6 0 -23 11 -38 25 -14 13 -29 24
-32 24 -2 0 -35 19 -72 43 -37 24 -75 46 -84 50 -10 4 -18 12 -18 18 0 6 -4 9
-9 5 -5 -3 -15 0 -23 7 -7 7 -35 24 -61 38 -26 13 -47 28 -47 33 0 4 -4 6 -9
2 -5 -3 -15 0 -23 7 -7 7 -20 14 -28 16 -8 2 -17 7 -20 11 -3 5 -16 12 -30 16
-14 4 -33 15 -44 24 -10 9 -20 15 -22 14 -5 -3 -126 50 -166 73 -16 8 -28 13
-28 9 0 -3 -10 1 -23 10 -13 8 -27 12 -30 8 -4 -3 -7 -1 -7 5 0 7 -8 12 -18
12 -10 0 -23 5 -30 12 -7 7 -12 8 -12 4 0 -5 -6 -4 -12 1 -7 6 -39 18 -70 28
-32 10 -58 21 -58 25 0 5 -8 7 -17 5 -10 -1 -22 1 -28 5 -5 4 -37 15 -70 25
-33 10 -86 26 -119 36 -82 26 -164 32 -202 15z"/>
<path d="M5815 15449 c-27 -5 -51 -13 -53 -19 -2 -5 -8 -8 -13 -4 -5 3 -12 -2
-15 -10 -3 -9 -13 -16 -21 -16 -8 0 -11 -5 -8 -10 3 -6 0 -13 -8 -16 -21 -8
-41 -86 -34 -134 3 -21 15 -53 27 -70 12 -16 18 -30 15 -30 -4 0 0 -7 7 -15
31 -34 36 -43 31 -49 -4 -3 -1 -6 5 -6 6 0 14 -10 18 -22 3 -12 14 -29 23 -39
9 -10 27 -40 41 -66 13 -26 27 -50 30 -53 3 -3 12 -18 20 -35 8 -16 25 -47 38
-68 13 -22 24 -47 25 -57 1 -10 5 -16 11 -13 5 4 7 -1 3 -11 -4 -10 -3 -15 3
-11 9 5 12 -8 9 -31 0 -4 4 -10 11 -14 6 -4 12 -16 13 -28 0 -11 5 -18 9 -16
4 3 9 0 9 -5 2 -18 5 -25 23 -66 10 -22 19 -44 20 -50 2 -5 9 -23 15 -40 27
-64 39 -103 34 -109 -4 -3 -1 -6 6 -6 7 0 10 -4 6 -9 -3 -5 -1 -12 4 -15 8 -6
26 -73 23 -88 -1 -5 2 -8 7 -8 6 0 8 -9 6 -20 -2 -11 0 -20 4 -20 4 0 8 -6 9
-12 0 -7 12 -58 27 -113 14 -55 24 -108 21 -117 -2 -9 0 -18 4 -20 7 -3 12
-27 25 -138 2 -14 4 -27 6 -30 1 -3 2 -18 3 -35 1 -16 4 -34 7 -40 3 -5 5 -34
5 -62 -1 -29 1 -53 4 -53 3 0 5 -15 4 -32 -1 -18 4 -36 10 -40 7 -5 7 -8 1 -8
-11 0 -13 -65 -3 -76 4 -3 3 -17 -2 -30 -5 -13 -6 -24 -2 -24 8 0 9 -260 1
-275 -3 -6 -5 -32 -3 -60 1 -29 -3 -53 -10 -57 -8 -6 -8 -8 0 -8 8 0 9 -13 4
-39 -4 -21 -6 -53 -6 -70 1 -17 -3 -31 -8 -31 -5 0 -3 -6 3 -13 6 -8 8 -17 4
-21 -4 -4 -9 -24 -10 -44 -4 -50 -8 -70 -15 -78 -4 -3 -3 -17 2 -30 5 -13 6
-24 2 -24 -4 0 -8 -21 -10 -47 -2 -26 -6 -51 -9 -57 -4 -5 -7 -28 -8 -50 -1
-23 -5 -57 -9 -76 -3 -19 -8 -48 -11 -65 -3 -16 -10 -57 -16 -90 -6 -33 -13
-69 -14 -80 -2 -11 -6 -31 -9 -45 -3 -14 -8 -41 -11 -60 -9 -62 -21 -116 -30
-130 -6 -9 -4 -11 5 -5 10 6 11 4 4 -6 -4 -8 -10 -21 -11 -29 -5 -26 -14 -84
-19 -113 -2 -16 -6 -32 -9 -37 -3 -4 -7 -28 -10 -51 -3 -24 -13 -73 -21 -109
-9 -36 -17 -78 -20 -95 -2 -16 -8 -53 -14 -82 -6 -28 -12 -61 -13 -72 -1 -12
-4 -21 -8 -21 -4 0 -6 -6 -6 -12 1 -12 -14 -131 -19 -150 -1 -5 -2 -13 -3 -19
0 -5 -7 -7 -13 -3 -10 6 -10 5 -1 -8 7 -8 11 -17 8 -20 -3 -2 -7 -24 -10 -49
-3 -24 -12 -80 -20 -124 -7 -44 -16 -100 -19 -125 -4 -25 -9 -63 -13 -85 -3
-22 -7 -51 -9 -65 -1 -14 -5 -50 -9 -80 -4 -30 -8 -73 -10 -95 -2 -22 -4 -40
-5 -40 -1 0 -3 -25 -5 -55 -2 -30 -6 -100 -10 -155 -4 -55 -8 -127 -8 -160 -1
-33 -6 -63 -12 -67 -7 -5 -6 -8 1 -8 12 0 13 -48 2 -65 -4 -6 -3 -17 2 -25 4
-7 4 -23 0 -36 -5 -12 -6 -25 -2 -28 10 -11 9 -46 -2 -46 -7 0 -7 -3 -1 -8 6
-4 11 -41 11 -82 3 -127 11 -240 18 -247 10 -11 7 -25 -5 -17 -8 4 -8 1 -2
-12 6 -11 11 -39 12 -64 3 -50 8 -95 11 -95 1 0 3 -13 5 -30 4 -46 15 -108 20
-113 3 -3 -1 -12 -8 -20 -9 -13 -9 -14 1 -8 8 5 12 -1 14 -21 1 -33 3 -43 10
-63 3 -8 13 -53 23 -100 9 -47 21 -93 26 -102 7 -12 6 -18 -2 -18 -8 0 -9 -4
0 -13 6 -8 12 -23 14 -35 2 -12 6 -24 9 -28 4 -3 4 -12 2 -19 -3 -7 -1 -16 5
-20 6 -3 11 -16 11 -29 0 -12 3 -26 7 -30 4 -3 8 -16 10 -28 2 -12 14 -52 28
-89 13 -37 21 -70 18 -73 -4 -3 -2 -6 4 -6 12 0 36 -77 28 -90 -4 -6 1 -13 9
-16 9 -3 16 -15 16 -25 0 -17 17 -56 30 -69 3 -3 6 -13 8 -22 1 -9 18 -50 37
-91 18 -41 31 -78 28 -81 -4 -3 -2 -6 4 -6 6 0 14 -12 17 -26 4 -14 18 -43 31
-65 14 -21 25 -45 25 -53 0 -8 3 -16 8 -18 8 -4 55 -94 53 -103 -1 -3 5 -13
14 -21 8 -9 13 -20 10 -25 -4 -5 -2 -9 3 -9 5 0 14 -10 20 -22 6 -13 25 -45
41 -73 17 -27 40 -68 52 -90 12 -22 27 -43 33 -47 6 -4 8 -8 3 -8 -4 0 13 -29
38 -64 25 -36 45 -68 45 -72 0 -4 10 -15 22 -25 11 -11 18 -19 13 -19 -4 0 -2
-7 5 -15 6 -8 8 -20 4 -27 -5 -8 -1 -8 11 2 10 8 16 10 12 3 -4 -6 4 -25 19
-42 14 -17 22 -36 18 -42 -4 -7 -3 -9 4 -5 14 8 56 -50 48 -69 -3 -9 0 -12 9
-9 8 3 19 -4 26 -18 10 -19 62 -87 109 -145 6 -7 8 -13 5 -13 -3 0 0 -6 7 -14
7 -8 16 -12 21 -9 4 2 7 -1 7 -6 0 -12 -1 -10 127 -161 49 -58 98 -116 109
-129 10 -13 27 -31 36 -39 9 -9 15 -19 12 -24 -3 -4 0 -8 5 -8 14 0 67 -60 63
-71 -1 -5 1 -8 6 -7 4 2 37 -27 74 -65 37 -37 65 -67 63 -67 -1 0 18 -22 44
-48 25 -26 48 -47 51 -46 3 1 11 -4 18 -12 10 -11 10 -14 0 -14 -7 0 2 -8 19
-16 18 -9 30 -20 27 -25 -3 -5 2 -9 11 -9 11 0 15 -5 11 -16 -3 -8 -2 -13 3
-9 5 3 19 -7 30 -21 12 -15 21 -23 21 -19 0 4 20 -12 44 -36 23 -24 77 -75
119 -114 42 -38 73 -73 71 -77 -3 -5 0 -7 8 -6 7 2 12 -3 10 -10 -1 -8 2 -11
8 -7 13 8 81 -55 73 -68 -3 -6 -1 -7 5 -3 6 3 17 -2 24 -12 7 -11 18 -20 23
-22 6 -1 9 -6 7 -12 -1 -5 1 -7 6 -4 4 2 21 -8 38 -22 17 -15 55 -47 84 -72
30 -25 63 -54 74 -65 12 -12 29 -24 40 -28 10 -4 16 -13 13 -22 -4 -9 -1 -12
9 -8 7 3 14 -1 14 -8 0 -7 3 -9 7 -6 3 4 19 -6 34 -22 15 -16 30 -27 33 -24 3
3 8 -2 12 -11 3 -9 15 -16 25 -16 10 0 19 -3 19 -8 0 -11 91 -7 123 6 34 14
40 15 32 3 -3 -5 -1 -12 4 -16 6 -3 8 3 6 14 -2 13 3 22 15 26 11 3 19 9 17
13 -3 12 29 52 37 45 4 -4 4 1 0 11 -4 11 -3 17 2 14 11 -7 10 72 -1 127 -5
22 -10 49 -11 60 -1 11 -3 20 -4 20 -3 0 -12 42 -13 68 -1 15 -5 27 -8 27 -3
0 -6 6 -6 13 -1 13 -8 49 -17 87 -4 14 -9 39 -11 55 -2 17 -4 30 -5 30 -5 0
-32 164 -34 200 -1 11 -4 22 -8 25 -4 3 -9 27 -10 53 -2 26 -6 47 -10 47 -4 0
-6 14 -4 30 2 17 -1 30 -6 30 -6 0 -8 6 -5 13 3 8 1 20 -3 27 -5 8 -5 22 0 31
7 11 5 20 -3 27 -14 12 -15 50 -3 70 4 7 2 10 -6 7 -10 -4 -14 5 -15 32 -1 21
-3 52 -6 68 -3 17 -8 50 -12 75 -4 25 -8 59 -10 75 -1 17 -5 55 -9 85 -3 30
-8 77 -11 103 -2 26 -7 53 -11 59 -5 7 -3 8 6 3 8 -5 11 -4 7 2 -9 14 -17 68
-21 133 -2 28 -6 53 -9 56 -3 3 -1 19 3 35 5 16 5 31 0 34 -4 3 -8 26 -8 52 0
27 -1 53 -3 58 -5 30 -3 62 6 74 7 11 7 13 -2 8 -8 -5 -11 8 -9 45 1 29 -2 63
-6 76 -5 13 -4 31 2 42 6 10 6 21 2 24 -9 6 -8 98 1 113 4 6 4 13 0 17 -10 9
-14 98 -4 92 4 -3 8 1 8 9 0 8 -3 12 -7 10 -4 -2 -7 9 -8 26 0 19 3 27 10 23
7 -5 8 -2 2 7 -14 23 -15 49 -1 49 9 0 8 3 -2 9 -9 6 -10 11 -2 15 6 4 9 11 7
15 -10 16 -14 61 -6 61 6 0 6 10 0 24 -5 13 -6 26 -3 29 3 3 7 55 9 114 2 60
6 134 9 164 3 30 8 72 10 94 13 133 16 162 19 180 4 21 18 142 21 185 1 16 7
24 16 22 10 -3 11 -1 3 8 -14 14 -6 52 9 43 6 -4 7 -1 1 8 -12 19 -12 30 -2
52 6 11 5 17 -2 17 -6 0 -8 5 -5 10 4 6 10 8 13 6 4 -2 7 7 6 22 0 14 3 44 8
66 5 23 9 49 9 59 0 9 3 16 7 13 4 -2 8 14 9 35 0 22 7 47 15 56 8 10 8 14 1
10 -9 -6 -9 1 -2 25 13 42 17 60 18 76 1 7 5 11 9 8 4 -2 7 6 7 20 -1 13 6 54
16 91 9 38 19 75 21 83 1 8 8 18 13 22 6 5 4 8 -5 8 -13 0 -13 2 -1 9 8 5 16
18 17 28 10 71 16 84 31 79 13 -5 14 -4 4 8 -9 10 -9 20 -3 33 6 10 11 23 11
28 4 31 47 153 60 168 12 14 12 17 0 17 -11 0 -11 2 1 10 8 5 11 10 6 10 -5 0
-3 7 4 15 7 8 9 15 4 15 -4 0 -3 5 4 12 7 7 12 20 12 30 0 9 8 22 18 27 9 6
11 11 5 11 -10 0 -10 6 -1 25 6 14 15 25 20 25 5 0 7 4 4 9 -7 11 4 42 13 37
3 -2 7 8 8 23 2 33 27 83 37 74 4 -4 4 1 0 11 -5 13 -1 23 11 32 12 9 14 14 6
14 -11 0 -11 3 -1 15 7 8 9 15 6 15 -4 0 0 7 8 16 9 8 16 24 16 35 0 10 5 19
11 19 5 0 8 4 4 9 -3 5 0 15 7 23 7 7 14 20 16 28 2 8 8 18 14 21 5 3 9 8 7
10 -5 9 23 79 32 79 5 0 8 3 7 8 -3 15 15 62 24 62 5 0 6 -5 2 -12 -4 -6 -3
-8 4 -4 6 3 9 16 7 28 -3 12 2 29 9 37 8 9 15 19 15 23 3 24 46 96 54 91 6 -3
7 -1 3 6 -4 6 0 23 8 36 9 14 13 25 9 25 -4 0 2 7 13 16 10 8 13 13 6 9 -14
-7 26 66 43 77 5 4 6 8 1 8 -5 0 -2 8 7 18 15 16 17 21 17 40 0 4 5 0 10 -8 8
-11 9 -8 6 13 -3 15 -1 27 4 27 6 0 12 11 16 25 3 14 10 25 14 25 4 0 11 11
14 25 4 14 11 23 16 20 5 -3 12 0 16 6 4 8 3 9 -4 5 -17 -10 -15 2 6 32 10 15
31 53 47 84 16 31 34 54 39 51 5 -4 6 -1 2 6 -5 7 -1 20 9 31 9 10 18 27 20
37 1 10 9 17 16 15 8 -2 11 0 7 3 -10 10 19 65 34 65 6 0 8 3 5 6 -9 9 34 84
44 78 5 -3 6 2 3 10 -3 9 -1 16 6 16 6 0 9 4 5 9 -3 6 0 13 7 18 7 4 13 15 13
23 0 8 7 14 15 12 8 -2 12 0 8 3 -4 4 -2 17 4 29 7 11 12 24 13 28 0 4 6 13
13 20 6 6 12 18 12 25 0 7 5 13 12 13 6 0 8 3 5 6 -3 4 2 18 13 32 11 13 17
29 13 35 -4 6 0 8 10 4 11 -4 14 -2 11 7 -3 7 11 40 30 74 20 33 36 65 36 71
0 6 5 11 10 11 6 0 10 7 10 15 0 8 4 15 10 15 5 0 9 3 8 8 -5 16 55 131 65
125 5 -3 7 -1 4 5 -9 13 2 44 13 37 4 -3 7 1 7 8 -2 21 35 97 44 91 5 -3 6 2
3 10 -3 9 -1 16 6 16 6 0 9 4 5 9 -6 11 25 81 37 81 4 0 4 7 1 17 -5 12 -3 14
7 8 8 -5 11 -4 7 2 -8 12 29 109 40 106 4 -1 8 14 9 34 0 19 7 39 14 43 8 5
11 12 8 16 -4 4 -3 15 3 26 6 11 13 29 15 41 3 12 7 29 9 37 2 8 4 19 4 23 1
5 4 6 9 4 4 -3 8 7 10 21 1 15 5 50 8 78 4 35 1 62 -10 88 -9 21 -13 42 -10
47 3 5 -2 6 -10 3 -11 -4 -16 0 -16 14 0 11 -7 22 -15 26 -8 3 -15 14 -15 25
0 11 -4 21 -8 23 -9 4 -92 127 -92 138 0 4 -9 15 -20 25 -11 10 -20 24 -20 31
0 7 -6 19 -12 26 -7 7 -26 33 -43 58 -16 25 -34 48 -40 52 -6 5 -6 8 -1 8 6 0
2 6 -7 13 -9 6 -17 19 -19 27 -2 8 -11 21 -20 28 -10 7 -18 20 -18 28 0 8 -3
14 -7 14 -5 0 -19 17 -33 38 -14 20 -29 40 -35 44 -5 4 -6 8 -1 8 5 0 -1 9
-14 20 -13 11 -19 20 -14 20 5 0 1 5 -8 11 -10 5 -18 14 -18 20 0 5 -11 20
-25 33 -14 13 -25 28 -25 35 0 6 -4 11 -10 11 -5 0 -10 7 -10 16 0 8 -4 12
-10 9 -5 -3 -10 1 -10 9 0 9 -4 16 -10 16 -5 0 -10 4 -10 10 0 5 -10 20 -22
33 -44 45 -66 75 -61 81 4 3 -1 6 -10 6 -9 0 -17 5 -17 10 0 6 -11 20 -25 32
-14 12 -25 27 -25 34 0 7 -9 16 -20 19 -11 3 -20 10 -20 14 0 12 -220 231
-232 231 -5 0 -6 5 -3 10 3 6 1 10 -5 10 -6 0 -21 9 -33 21 -66 61 -111 99
-117 99 -4 0 -21 12 -37 28 -17 15 -67 52 -113 82 -45 30 -90 63 -101 73 -10
9 -19 15 -19 12 0 -5 -49 24 -60 35 -3 3 -35 21 -72 40 -37 19 -68 38 -68 43
0 4 -7 7 -15 7 -8 0 -45 15 -82 34 -114 58 -202 95 -353 147 -156 55 -166 59
-186 62 -10 1 -25 6 -31 10 -7 5 -13 5 -13 1 0 -3 -7 -1 -15 6 -8 7 -15 10
-15 6 0 -4 -13 0 -29 8 -16 9 -31 13 -34 9 -4 -3 -14 -2 -24 2 -10 5 -24 7
-30 6 -7 -1 -13 3 -13 8 0 6 -7 8 -15 5 -8 -3 -20 -2 -27 2 -7 5 -17 9 -23 10
-5 1 -44 9 -85 18 -41 9 -88 19 -104 22 -16 3 -59 12 -95 20 -36 8 -86 17
-110 19 -24 3 -54 8 -65 12 -12 4 -36 7 -53 8 -18 1 -35 4 -39 7 -3 4 -12 4
-20 1 -8 -3 -14 -1 -14 3 0 5 -14 9 -31 8 -18 0 -51 3 -75 7 -24 5 -69 11 -99
14 -31 4 -66 8 -78 11 -12 2 -42 6 -67 9 -152 19 -199 24 -235 26 -22 2 -44 5
-50 8 -5 3 -32 6 -60 8 -91 4 -142 10 -154 17 -6 4 -11 1 -11 -6 0 -8 -3 -9
-8 -3 -4 6 -18 11 -32 12 -14 1 -43 2 -65 4 -22 1 -44 4 -48 7 -5 2 -44 5 -86
7 -43 1 -82 4 -87 7 -5 2 -31 1 -59 -3z"/>
<path d="M10120 12535 c-7 -9 -11 -17 -9 -20 3 -2 10 5 17 15 14 24 10 26 -8
5z"/>
<path d="M9815 11851 c-3 -5 -2 -12 3 -15 5 -3 9 1 9 9 0 17 -3 19 -12 6z"/>
<path d="M9436 11287 c3 -10 9 -15 12 -12 3 3 0 11 -7 18 -10 9 -11 8 -5 -6z"/>
<path d="M15235 10211 c-3 -5 -2 -12 3 -15 5 -3 9 1 9 9 0 17 -3 19 -12 6z"/>
<path d="M8866 10038 c3 -5 10 -6 15 -3 13 9 11 12 -6 12 -8 0 -12 -4 -9 -9z"/>
<path d="M4868 9155 c-2 -2 -70 -5 -153 -9 -82 -3 -166 -8 -185 -11 -19 -3
-53 -7 -75 -10 -75 -9 -110 -16 -200 -36 -98 -23 -257 -71 -320 -99 -22 -9
-65 -28 -95 -41 -30 -13 -61 -30 -68 -36 -7 -7 -18 -13 -23 -13 -17 0 -214
-123 -274 -171 -5 -5 -30 -25 -55 -45 -99 -79 -233 -204 -317 -296 -23 -25
-44 -43 -47 -40 -3 3 -6 1 -6 -5 0 -5 -21 -32 -46 -59 -25 -27 -62 -68 -82
-92 -20 -23 -61 -67 -89 -97 -29 -29 -53 -59 -53 -65 0 -6 -4 -8 -10 -5 -5 3
-10 2 -10 -3 0 -6 -29 -40 -65 -77 -36 -36 -65 -70 -65 -76 0 -5 -3 -8 -7 -7
-5 1 -31 -20 -59 -47 -79 -77 -171 -157 -199 -174 -14 -9 -25 -22 -25 -29 0
-7 -4 -11 -8 -8 -5 3 -18 -2 -28 -12 -73 -65 -390 -252 -428 -252 -9 0 -16 -4
-16 -9 0 -5 -13 -12 -30 -16 -16 -4 -32 -11 -35 -16 -4 -5 -14 -9 -23 -9 -9 0
-29 -6 -43 -14 -24 -12 -174 -62 -216 -71 -103 -23 -142 -50 -184 -130 -20
-38 -16 -106 10 -155 11 -21 17 -41 13 -46 -4 -4 -2 -4 4 -1 7 4 17 0 24 -8 7
-8 18 -15 25 -15 8 0 15 -4 17 -9 3 -9 24 -15 98 -27 19 -3 45 -7 58 -10 12
-2 32 -6 45 -8 12 -3 38 -7 57 -10 68 -11 84 -16 92 -28 4 -7 8 -8 8 -3 0 6 9
11 20 11 11 0 20 -4 20 -9 0 -4 4 -6 9 -3 5 3 27 -1 50 -9 46 -16 42 -15 77
-15 16 0 23 -4 18 -12 -4 -7 -3 -8 5 -4 6 4 37 2 69 -5 31 -7 61 -12 66 -10 4
1 14 -3 20 -9 7 -5 16 -7 20 -3 3 4 13 -2 21 -13 15 -19 15 -19 8 1 -6 17 -4
18 9 8 8 -7 18 -10 21 -6 4 3 9 -2 13 -11 5 -13 9 -14 20 -5 8 6 14 8 14 3 0
-5 17 -10 37 -12 20 -1 39 -6 43 -10 3 -4 18 -8 35 -9 16 -1 36 -6 45 -9 8 -4
19 -8 23 -8 4 -1 12 -8 17 -16 6 -8 10 -10 10 -3 0 12 24 12 36 0 4 -4 18 -7
32 -7 18 0 23 -4 18 -16 -5 -13 -3 -14 7 -6 14 12 43 6 132 -23 28 -9 56 -17
63 -18 6 0 12 -3 12 -7 0 -4 6 -7 13 -7 23 0 166 -46 163 -52 -2 -3 7 -7 20
-7 13 -1 32 -5 42 -9 9 -5 23 -9 30 -11 7 -1 31 -11 52 -22 22 -10 37 -16 35
-11 -3 4 8 1 24 -7 17 -8 38 -17 48 -19 17 -3 57 -19 128 -50 17 -7 44 -18 60
-23 17 -5 29 -15 27 -21 -1 -7 2 -10 7 -7 13 8 156 -49 156 -62 0 -6 4 -14 9
-19 5 -5 6 -3 2 5 -8 13 3 16 28 6 9 -3 13 -11 9 -17 -3 -5 -1 -7 5 -4 5 4 27
-2 49 -12 21 -11 57 -27 80 -37 23 -10 39 -22 36 -27 -3 -6 -1 -7 4 -4 13 8
73 -21 73 -34 0 -6 5 -7 10 -4 6 3 10 2 10 -4 0 -6 6 -8 13 -5 8 3 20 -2 27
-11 7 -8 21 -15 32 -15 10 0 16 -4 13 -10 -3 -5 3 -10 14 -10 11 0 26 -7 34
-15 8 -8 17 -11 21 -8 3 4 6 1 6 -5 0 -7 7 -12 15 -12 8 0 15 -4 15 -8 0 -4
10 -9 22 -9 13 -1 24 -7 26 -13 2 -5 10 -10 17 -10 7 0 15 -3 17 -7 2 -5 24
-18 50 -31 26 -13 50 -27 53 -33 4 -5 11 -7 16 -4 5 4 9 -2 9 -11 0 -10 3 -14
6 -11 6 6 60 -19 74 -33 3 -3 19 -12 35 -20 17 -8 36 -21 43 -28 8 -7 17 -10
22 -7 5 3 15 -3 22 -12 7 -10 20 -19 28 -21 8 -2 18 -8 21 -14 3 -5 9 -9 13
-9 16 2 74 -33 69 -42 -3 -6 -1 -7 6 -3 6 4 19 2 27 -5 8 -6 38 -25 67 -40 29
-15 51 -33 50 -38 -2 -6 4 -8 11 -5 8 3 31 -5 53 -18 21 -14 53 -30 71 -37 17
-8 32 -17 32 -22 0 -5 5 -9 12 -9 20 0 118 -52 113 -60 -3 -5 3 -6 13 -4 9 3
26 -3 37 -14 11 -10 25 -17 32 -15 6 2 18 -3 27 -12 9 -9 16 -14 16 -11 0 3
22 -6 49 -19 27 -14 54 -25 60 -25 6 0 11 -5 11 -12 0 -6 3 -8 7 -5 3 4 15 -1
26 -10 11 -10 17 -13 14 -6 -5 8 1 8 20 -2 64 -30 120 -54 146 -60 15 -4 27
-10 27 -14 0 -4 6 -8 13 -9 22 -2 42 -8 63 -20 12 -6 24 -8 28 -5 3 3 6 1 6
-5 0 -6 7 -9 15 -6 8 4 15 1 15 -5 0 -6 3 -10 8 -10 4 1 9 0 12 -1 3 -1 12 -3
20 -5 35 -6 155 -50 161 -58 3 -5 10 -8 15 -7 15 2 124 -24 124 -30 0 -3 8 -6
19 -7 10 -1 38 -7 62 -14 24 -7 47 -12 52 -11 4 1 7 -2 7 -8 0 -5 6 -7 14 -4
8 3 17 1 20 -5 4 -6 14 -7 23 -4 9 4 14 2 11 -3 -3 -5 10 -10 29 -11 19 -1 43
-5 52 -9 14 -6 36 -11 79 -16 6 -1 12 -5 12 -9 0 -4 14 -6 31 -5 16 1 32 -1
35 -6 3 -5 10 -6 15 -3 5 4 9 2 9 -3 0 -5 11 -8 25 -7 14 2 25 0 25 -4 0 -4
12 -6 27 -5 15 0 46 -5 68 -11 22 -7 46 -10 53 -8 6 3 12 1 12 -4 0 -4 21 -9
47 -10 26 -2 49 -6 52 -11 3 -4 18 -8 34 -9 63 -2 68 -3 61 -15 -5 -10 -4 -10
6 -1 8 7 22 8 44 2 17 -5 46 -10 64 -11 17 -1 32 -4 32 -7 0 -3 21 -7 48 -8
48 -2 127 -10 127 -13 0 -4 44 -9 92 -12 29 -2 53 -6 53 -9 0 -3 21 -5 46 -4
25 0 47 -2 50 -6 2 -4 14 -5 26 -1 16 4 19 2 13 -9 -8 -12 -6 -12 8 0 14 11
17 11 17 0 0 -12 2 -12 9 0 5 7 11 9 14 4 3 -5 24 -9 46 -8 23 1 41 -3 41 -8
0 -5 7 -4 15 3 11 9 15 9 15 1 0 -7 5 -9 10 -6 6 4 18 1 27 -7 12 -9 15 -9 9
0 -8 13 6 17 18 5 9 -9 110 -10 117 -1 3 5 17 9 31 10 15 1 26 7 25 13 -1 5 6
9 15 9 10 -1 15 2 13 7 -3 4 4 20 17 34 12 14 24 33 26 43 9 40 9 118 0 130
-6 6 -7 12 -2 12 4 0 0 6 -11 13 -12 9 -15 19 -10 28 5 8 5 11 1 8 -7 -7 -35
13 -88 63 -16 15 -30 26 -32 25 -2 -1 -18 10 -35 26 -17 15 -33 27 -36 27 -7
0 -22 13 -75 61 -21 20 -41 35 -43 32 -3 -2 -14 7 -25 21 -10 14 -22 23 -25
19 -4 -3 -9 2 -13 11 -3 9 -10 16 -15 16 -10 0 -53 35 -78 63 -8 9 -21 17 -29
17 -7 0 -10 5 -7 10 3 6 0 10 -7 10 -8 0 -20 9 -28 20 -8 11 -18 20 -22 20
-14 0 -77 68 -70 75 4 5 2 5 -4 2 -15 -8 -56 22 -48 35 4 7 2 8 -5 4 -6 -4
-14 0 -17 8 -3 9 -10 16 -15 16 -15 0 -59 43 -53 52 3 5 1 7 -4 6 -14 -4 -146
116 -337 309 -162 164 -315 323 -315 330 0 3 -44 55 -67 79 -7 7 -13 15 -13
18 0 3 -16 21 -35 40 -19 20 -35 39 -35 43 0 5 -8 15 -17 24 -10 8 -29 30 -43
49 -14 18 -31 39 -37 46 -7 7 -13 17 -13 22 0 6 -7 13 -16 16 -9 4 -14 9 -11
12 3 3 -2 14 -11 23 -35 37 -61 75 -56 83 3 4 -1 8 -9 8 -8 0 -17 8 -21 18 -3
9 -21 37 -40 62 -19 25 -35 50 -35 56 -1 7 -8 15 -17 18 -9 4 -14 9 -11 12 3
4 -3 15 -14 27 -10 11 -25 33 -31 49 -7 15 -16 28 -20 28 -5 0 -8 7 -8 15 0 8
-5 15 -11 15 -6 0 -9 9 -6 20 3 11 2 18 -3 15 -4 -2 -19 13 -34 35 -14 22 -24
40 -21 40 3 0 1 6 -5 13 -23 25 -111 179 -133 230 -6 15 -15 27 -20 27 -4 0
-6 4 -2 9 3 5 -1 15 -8 23 -7 7 -19 29 -27 48 -7 19 -19 42 -25 50 -6 8 -18
31 -25 50 -8 19 -20 44 -27 55 -7 11 -13 27 -13 37 0 10 -4 18 -10 18 -5 0
-10 7 -10 15 0 8 -4 23 -9 33 -19 35 -51 112 -51 122 0 5 -4 10 -9 10 -5 0
-13 15 -16 33 -4 17 -12 38 -17 44 -6 7 -8 20 -4 28 3 9 2 14 -2 11 -4 -2 -12
7 -19 20 -8 18 -8 24 0 24 7 0 4 5 -6 11 -9 6 -15 14 -12 20 4 5 1 9 -4 9 -6
0 -10 3 -9 8 1 4 -13 48 -31 97 -18 50 -34 95 -35 100 -2 6 -6 18 -10 27 -4 9
-9 25 -11 35 -2 10 -4 18 -5 18 -2 0 -9 28 -12 50 -2 11 -7 23 -11 26 -4 3
-10 18 -13 33 -2 15 -16 60 -29 99 -13 40 -26 83 -28 97 -3 14 -10 39 -17 55
-7 17 -13 39 -15 50 -2 11 -6 30 -9 43 -3 12 -9 32 -12 45 -3 12 -6 27 -8 32
-2 6 -6 24 -10 40 -24 98 -89 149 -196 154 -30 1 -67 4 -82 5 -15 2 -29 2 -30
1z"/>
<path d="M14670 8440 c0 -5 5 -10 11 -10 5 0 7 5 4 10 -3 6 -8 10 -11 10 -2 0
-4 -4 -4 -10z"/>
<path d="M14369 7963 c-13 -16 -12 -17 4 -4 9 7 17 15 17 17 0 8 -8 3 -21 -13z"/>
<path d="M14230 7776 c0 -2 8 -10 18 -17 15 -13 16 -12 3 4 -13 16 -21 21 -21
13z"/>
<path d="M14186 7682 c-3 -5 1 -9 9 -9 8 0 12 4 9 9 -3 4 -7 8 -9 8 -2 0 -6
-4 -9 -8z"/>
<path d="M16727 7434 c-1 -1 -74 -4 -162 -8 -88 -3 -171 -8 -185 -10 -14 -3
-50 -7 -80 -10 -30 -3 -77 -9 -105 -13 -27 -3 -65 -7 -82 -7 -18 -1 -33 -3
-33 -6 0 -3 -8 -6 -17 -7 -25 -1 -108 -11 -110 -14 -2 -1 -12 -3 -23 -4 -11
-1 -21 -3 -22 -5 -2 -1 -18 -4 -36 -7 -55 -7 -339 -79 -447 -113 -55 -17 -104
-32 -110 -34 -14 -4 -25 -8 -140 -51 -55 -21 -106 -38 -112 -38 -7 0 -13 -3
-13 -7 0 -3 -17 -12 -37 -19 -21 -8 -80 -33 -132 -57 -51 -24 -97 -44 -102
-44 -5 0 -9 -5 -9 -10 0 -6 -3 -9 -7 -8 -5 1 -32 -10 -60 -25 -48 -25 -66 -35
-144 -79 -13 -7 -26 -15 -29 -18 -3 -3 -25 -16 -50 -29 -38 -21 -233 -148
-265 -173 -5 -5 -53 -40 -105 -79 -52 -39 -102 -78 -110 -85 -8 -7 -24 -21
-35 -31 -12 -10 -54 -45 -95 -78 -41 -33 -77 -62 -80 -65 -3 -3 -34 -28 -70
-55 -36 -27 -67 -52 -70 -55 -3 -3 -21 -17 -40 -30 -43 -30 -56 -40 -81 -62
-10 -10 -22 -18 -25 -18 -5 0 -28 -17 -81 -60 -7 -6 -16 -10 -21 -10 -5 0 -17
-9 -27 -20 -10 -11 -24 -20 -31 -20 -7 0 -14 -4 -16 -9 -1 -5 -37 -30 -78 -57
-41 -26 -77 -51 -80 -54 -3 -4 -23 -18 -46 -31 -22 -13 -66 -40 -98 -59 -66
-40 -59 -36 -196 -116 -115 -67 -252 -141 -345 -187 -33 -16 -95 -47 -138 -69
-42 -21 -82 -36 -87 -33 -6 3 -10 2 -10 -4 0 -5 -21 -17 -47 -27 -27 -10 -50
-20 -53 -24 -3 -3 -32 -16 -65 -29 -33 -13 -78 -31 -100 -41 -79 -35 -384
-148 -417 -154 -13 -3 -25 -5 -28 -6 -3 -2 -8 -2 -12 -1 -5 0 -8 -4 -8 -9 0
-6 -8 -10 -18 -10 -16 0 -159 -40 -202 -57 -20 -8 -23 -9 -115 -33 -44 -12
-84 -22 -90 -24 -5 -2 -29 -7 -52 -11 -24 -4 -43 -12 -43 -17 0 -5 -4 -6 -10
-3 -5 3 -27 1 -47 -4 -21 -6 -49 -12 -63 -15 -14 -2 -32 -7 -40 -10 -8 -3 -28
-7 -45 -10 -16 -3 -66 -12 -109 -21 -44 -8 -92 -17 -108 -20 -15 -3 -43 -8
-60 -11 -18 -4 -42 -7 -53 -8 -11 -1 -24 -4 -30 -7 -5 -3 -22 -5 -37 -4 -16 1
-28 -2 -28 -7 0 -4 -12 -6 -27 -4 -14 3 -31 2 -37 -2 -6 -3 -20 -7 -31 -8 -11
-1 -42 -5 -70 -9 -27 -4 -57 -8 -65 -9 -43 -6 -113 -59 -124 -93 -4 -13 -11
-23 -16 -23 -4 0 -7 -8 -6 -17 2 -10 0 -30 -5 -45 -4 -16 -3 -30 2 -34 5 -3 7
-9 4 -14 -3 -5 -1 -11 5 -15 5 -3 10 -15 10 -26 0 -10 4 -19 9 -19 5 0 13 -9
16 -20 3 -11 13 -20 21 -20 8 0 14 -4 14 -10 0 -5 7 -10 15 -10 8 0 15 -4 15
-10 0 -5 11 -10 25 -10 14 0 25 -5 25 -11 0 -6 6 -9 13 -6 7 3 21 -1 31 -9 11
-7 23 -11 27 -8 5 3 9 0 9 -7 0 -7 3 -10 6 -6 8 7 65 -13 60 -21 -2 -4 8 -8
22 -9 15 -1 45 -10 67 -19 22 -10 46 -19 54 -20 35 -7 70 -27 64 -38 -4 -6 1
-5 10 3 9 7 17 9 17 4 0 -5 12 -10 27 -11 15 -1 30 -8 35 -15 4 -6 8 -8 8 -3
0 6 7 1 16 -10 8 -10 13 -13 9 -6 -8 15 7 16 23 0 7 -7 12 -9 12 -5 0 4 22 -2
48 -12 79 -31 201 -71 218 -71 11 0 14 -5 10 -16 -5 -14 -4 -15 8 -5 14 12 46
5 46 -9 0 -5 8 -7 18 -5 9 1 28 -2 42 -7 14 -6 34 -12 45 -14 35 -7 95 -30 91
-35 -2 -2 8 -4 24 -5 15 -1 36 -5 46 -9 22 -9 43 -15 64 -19 9 -1 20 -4 25 -8
14 -8 66 -21 93 -23 13 -1 27 -6 30 -11 4 -5 16 -10 27 -10 11 -1 56 -12 100
-24 44 -12 85 -23 90 -24 6 -1 16 -5 23 -9 6 -5 12 -5 12 -1 0 3 12 -1 26 -11
15 -9 23 -12 20 -6 -5 8 0 8 16 2 25 -9 32 -11 49 -11 5 0 7 -6 3 -12 -5 -8 0
-7 11 2 14 11 19 12 22 2 3 -6 9 -10 14 -6 5 3 9 1 9 -4 0 -5 14 -7 30 -4 17
2 30 0 30 -6 0 -5 8 -9 18 -9 36 0 43 -3 36 -15 -5 -10 -4 -10 6 -1 8 7 22 8
41 3 16 -5 32 -9 34 -9 3 -1 6 -1 8 -2 1 0 11 -2 22 -3 48 -6 91 -19 97 -30 6
-8 8 -8 8 1 0 6 9 9 20 6 11 -3 17 -10 13 -17 -4 -7 -2 -7 7 1 9 8 20 9 38 2
13 -5 27 -7 30 -4 3 2 11 0 19 -6 10 -9 13 -8 13 2 0 9 3 10 8 4 12 -17 47
-41 38 -28 -5 10 1 12 26 9 18 -3 35 -5 38 -7 3 -1 8 -1 13 0 4 0 7 -3 7 -7 0
-5 14 -6 31 -4 25 4 30 2 24 -9 -7 -11 -6 -12 6 -3 13 9 28 11 47 4 15 -6 28
-8 60 -9 24 -1 31 -5 26 -13 -6 -10 -5 -10 8 -1 8 7 18 10 21 7 3 -3 23 -8 44
-10 21 -2 63 -6 93 -9 30 -4 65 -7 78 -8 12 0 22 -3 22 -6 0 -4 30 -6 68 -7
37 -1 94 -4 127 -8 33 -3 81 -7 107 -8 31 -1 45 -5 41 -12 -4 -6 0 -5 8 1 12
10 18 10 29 0 10 -9 11 -9 6 1 -4 6 -2 12 3 12 6 0 11 -6 11 -12 0 -9 3 -10 8
-2 4 6 16 9 27 7 34 -6 384 -7 390 -1 3 3 21 2 39 -2 19 -4 40 -4 47 1 8 4 20
3 28 -4 12 -9 13 -9 7 1 -4 6 -2 12 3 12 6 0 11 -5 11 -11 0 -8 4 -8 13 -2 6
5 37 11 67 13 94 5 135 8 135 10 0 1 14 3 30 5 42 3 142 14 190 21 22 3 52 7
67 9 15 2 33 7 39 11 8 5 9 3 4 -7 -7 -11 -6 -12 7 -2 8 7 18 10 21 6 4 -3 7
-2 7 3 0 5 18 9 40 8 23 0 43 3 46 8 8 12 48 10 64 -4 12 -11 12 -10 1 5 -7 9
-10 17 -5 18 5 0 21 2 37 4 19 3 25 0 20 -8 -3 -7 3 -3 15 7 12 11 22 16 22
13 0 -3 15 -1 33 4 17 6 42 12 54 15 12 2 34 9 48 14 14 5 25 8 25 6 0 -2 20
2 45 10 25 7 45 10 45 6 0 -4 4 -2 8 5 7 11 45 23 80 25 6 1 12 5 12 9 0 5 6
6 14 3 8 -3 17 -1 21 5 3 6 16 11 29 11 12 0 26 3 29 7 8 8 136 54 155 55 6 1
12 6 12 11 0 6 3 7 7 4 3 -4 17 0 30 9 19 12 27 13 39 3 12 -10 13 -9 8 6 -5
12 -4 16 4 11 6 -3 14 -2 17 4 5 8 11 7 21 -1 8 -6 17 -9 21 -5 3 3 1 6 -5 6
-21 0 -13 18 11 23 12 4 26 6 31 6 5 -1 12 5 16 11 4 7 19 13 33 13 14 1 23 4
21 6 -5 6 78 46 89 43 4 -1 7 3 7 9 0 6 6 9 14 6 8 -3 17 1 20 9 3 9 10 13 15
10 5 -3 11 1 15 9 3 8 12 12 21 9 8 -3 15 -1 15 5 0 6 7 11 15 11 8 0 15 6 15
13 0 8 4 7 10 -3 9 -14 15 -7 11 14 -1 5 7 6 19 3 11 -3 23 0 27 5 4 7 1 8 -8
4 -8 -4 -5 -1 5 8 10 8 24 12 30 8 17 -10 37 -11 30 -1 -3 5 -10 6 -16 3 -6
-4 -9 -1 -6 7 3 8 11 14 19 14 8 0 18 6 22 13 4 6 12 12 18 12 5 0 27 12 49
26 21 14 44 23 49 19 6 -3 11 0 11 8 0 8 20 25 45 38 25 13 45 28 45 32 0 5 5
5 10 2 6 -3 10 -1 10 4 0 6 6 11 13 11 7 0 22 8 33 18 28 25 74 54 74 45 0 -4
6 1 13 12 8 10 19 15 25 11 8 -5 10 -1 5 10 -4 12 -3 15 5 10 7 -4 12 -2 12 4
0 7 7 9 17 6 10 -4 14 -4 11 0 -9 9 11 28 50 48 18 9 32 20 32 25 0 4 12 14
28 22 15 8 33 22 41 32 7 10 20 16 28 13 9 -4 11 -2 7 6 -5 8 -1 9 12 4 10 -4
15 -4 11 0 -11 11 33 54 55 54 11 0 17 4 14 9 -3 5 1 14 9 21 8 7 15 10 15 6
0 -3 9 2 19 12 10 9 35 31 55 47 20 17 43 36 51 43 8 7 21 10 27 6 7 -4 10 -3
5 1 -7 9 30 55 44 55 8 0 46 32 109 93 16 15 33 27 37 27 5 0 16 8 24 18 18
19 50 47 93 80 17 12 26 22 21 22 -5 0 1 7 13 16 13 9 30 13 39 10 13 -5 13
-4 4 8 -9 11 -8 15 5 20 9 3 21 3 26 -1 7 -3 8 -1 4 6 -9 15 20 44 35 35 7 -4
9 -3 6 3 -7 11 38 55 47 46 3 -4 6 2 6 12 0 10 3 16 6 12 3 -3 14 3 25 14 11
11 24 17 29 14 6 -4 7 1 3 11 -4 12 -3 15 5 10 7 -4 12 -2 12 6 0 17 37 41 51
33 5 -4 9 -3 8 2 -4 14 13 43 21 38 4 -3 11 2 14 11 4 9 11 12 18 7 19 -11 39
-13 32 -2 -3 5 -10 7 -15 4 -5 -4 -9 0 -9 7 0 7 17 24 38 38 20 14 41 30 45
37 4 7 15 13 23 13 8 0 12 5 9 10 -3 6 -2 10 4 10 5 0 16 6 23 13 39 37 118
98 118 91 0 -5 7 2 16 14 8 12 20 20 25 17 5 -4 9 1 9 9 0 9 4 16 8 16 5 0 19
8 30 18 12 9 38 28 58 42 20 14 44 33 54 42 10 9 21 14 24 11 3 -3 8 2 12 11
3 9 10 13 15 10 5 -3 9 0 9 7 0 8 4 8 15 -1 13 -11 14 -10 9 3 -4 12 2 20 20
27 14 5 26 14 26 19 0 5 14 14 30 20 17 5 30 15 30 21 0 6 5 8 10 5 6 -3 10
-1 10 4 0 6 7 11 15 11 8 0 15 4 15 8 0 9 91 57 103 54 4 -1 7 2 7 7 0 5 16
19 36 30 27 16 40 19 49 11 10 -8 15 -8 21 1 4 8 3 9 -4 5 -7 -4 -12 -2 -12 4
0 7 9 14 20 17 11 3 20 10 20 15 0 6 7 5 15 -2 12 -10 15 -9 15 5 0 12 6 16
20 12 11 -3 18 -2 15 3 -5 7 89 54 110 55 6 0 12 2 15 5 3 3 21 13 40 22 26
13 36 14 42 5 5 -8 8 -7 8 4 0 15 5 17 50 21 11 1 20 6 20 10 0 13 35 9 50 -4
12 -11 12 -10 2 3 -10 14 -9 18 10 24 13 4 25 8 28 9 33 15 63 16 78 5 15 -13
16 -12 4 3 -12 15 -8 17 35 24 53 9 62 11 66 14 2 2 21 6 62 13 17 3 41 8 55
11 14 4 46 8 71 9 25 2 51 7 58 11 7 5 15 5 18 2 6 -6 63 31 75 49 5 6 8 6 8
0 0 -5 12 13 25 40 27 54 32 108 13 152 -6 15 -11 31 -10 36 1 4 -3 7 -9 7 -5
0 -7 5 -4 10 3 6 1 10 -6 10 -6 0 -19 8 -28 18 -9 10 -36 29 -61 43 -25 13
-46 27 -48 32 -2 4 -10 7 -18 7 -8 0 -14 4 -14 8 0 5 -18 15 -40 22 -22 7 -40
16 -40 20 0 4 -24 17 -52 31 -29 13 -54 27 -56 32 -2 4 -12 7 -23 7 -10 0 -19
5 -19 10 0 6 -3 9 -7 8 -12 -2 -113 44 -113 51 0 4 -8 7 -18 8 -10 1 -47 15
-82 31 -36 16 -103 44 -150 62 -47 17 -94 35 -105 40 -35 14 -139 50 -160 55
-11 2 -40 12 -65 21 -25 9 -52 17 -60 19 -8 2 -82 21 -165 43 -82 22 -167 43
-189 46 -21 4 -42 9 -47 12 -5 3 -23 7 -41 9 -44 6 -181 32 -190 36 -2 1 -16
3 -33 5 -16 2 -46 6 -65 8 -146 21 -192 27 -245 32 -33 3 -76 7 -95 9 -99 10
-535 26 -543 19z"/>
<path d="M13486 6942 c-3 -5 1 -9 9 -9 8 0 12 4 9 9 -3 4 -7 8 -9 8 -2 0 -6
-4 -9 -8z"/>
<path d="M7030 6683 c0 -6 8 -17 18 -24 16 -13 16 -13 2 6 -8 11 -16 22 -17
24 -2 2 -3 0 -3 -6z"/>
<path d="M2896 6453 c-6 -14 -5 -15 5 -6 7 7 10 15 7 18 -3 3 -9 -2 -12 -12z"/>
<path d="M12810 6406 c0 -2 7 -7 16 -10 8 -3 12 -2 9 4 -6 10 -25 14 -25 6z"/>
<path d="M19515 6400 c3 -5 8 -10 11 -10 2 0 4 5 4 10 0 6 -5 10 -11 10 -5 0
-7 -4 -4 -10z"/>
<path d="M3196 6302 c-3 -5 1 -9 9 -9 8 0 12 4 9 9 -3 4 -7 8 -9 8 -2 0 -6 -4
-9 -8z"/>
<path d="M12670 6300 c0 -5 5 -10 11 -10 5 0 7 5 4 10 -3 6 -8 10 -11 10 -2 0
-4 -4 -4 -10z"/>
<path d="M19075 6300 c-3 -5 -1 -10 4 -10 6 0 11 5 11 10 0 6 -2 10 -4 10 -3
0 -8 -4 -11 -10z"/>
<path d="M3311 6287 c2 -1 13 -9 24 -17 19 -14 19 -14 6 3 -7 9 -18 17 -24 17
-6 0 -8 -1 -6 -3z"/>
<path d="M19006 6238 c3 -5 10 -6 15 -3 13 9 11 12 -6 12 -8 0 -12 -4 -9 -9z"/>
<path d="M3435 6200 c3 -5 8 -10 11 -10 2 0 4 5 4 10 0 6 -5 10 -11 10 -5 0
-7 -4 -4 -10z"/>
<path d="M18986 6202 c-3 -5 1 -9 9 -9 8 0 12 4 9 9 -3 4 -7 8 -9 8 -2 0 -6
-4 -9 -8z"/>
<path d="M18715 6160 c3 -5 8 -10 11 -10 2 0 4 5 4 10 0 6 -5 10 -11 10 -5 0
-7 -4 -4 -10z"/>
<path d="M12366 6142 c-3 -5 1 -9 9 -9 8 0 12 4 9 9 -3 4 -7 8 -9 8 -2 0 -6
-4 -9 -8z"/>
<path d="M11895 5889 c-4 -6 -5 -12 -2 -15 2 -3 7 2 10 11 7 17 1 20 -8 4z"/>
<path d="M18189 5883 c-13 -16 -12 -17 4 -4 9 7 17 15 17 17 0 8 -8 3 -21 -13z"/>
<path d="M11795 5851 c-3 -5 -2 -12 3 -15 5 -3 9 1 9 9 0 17 -3 19 -12 6z"/>
<path d="M18096 5821 c-3 -5 2 -15 12 -22 15 -12 16 -12 5 2 -7 9 -10 19 -6
22 3 4 4 7 0 7 -3 0 -8 -4 -11 -9z"/>
<path d="M11675 5809 c-4 -6 -5 -12 -2 -15 2 -3 7 2 10 11 7 17 1 20 -8 4z"/>
<path d="M17976 5742 c-3 -4 4 -9 15 -9 23 -2 25 3 4 10 -8 4 -16 3 -19 -1z"/>
<path d="M11476 5722 c-3 -5 1 -9 9 -9 8 0 12 4 9 9 -3 4 -7 8 -9 8 -2 0 -6
-4 -9 -8z"/>
<path d="M17947 5679 c7 -7 15 -10 18 -7 3 3 -2 9 -12 12 -14 6 -15 5 -6 -5z"/>
<path d="M17839 5573 c-13 -16 -12 -17 4 -4 9 7 17 15 17 17 0 8 -8 3 -21 -13z"/>
<path d="M10755 5500 c-3 -5 -1 -10 4 -10 6 0 11 5 11 10 0 6 -2 10 -4 10 -3
0 -8 -4 -11 -10z"/>
<path d="M17645 5440 c10 -11 20 -20 23 -20 3 0 -3 9 -13 20 -10 11 -20 20
-23 20 -3 0 3 -9 13 -20z"/>
<path d="M10414 5422 c4 -3 14 -7 22 -8 9 -1 13 0 10 4 -4 3 -14 7 -22 8 -9 1
-13 0 -10 -4z"/>
<path d="M8633 5315 c0 -8 4 -12 9 -9 5 3 6 10 3 15 -9 13 -12 11 -12 -6z"/>
<path d="M17533 5285 c0 -8 4 -12 9 -9 5 3 6 10 3 15 -9 13 -12 11 -12 -6z"/>
<path d="M8510 5281 c0 -6 4 -13 10 -16 6 -3 7 1 4 9 -7 18 -14 21 -14 7z"/>
<path d="M17195 5101 c-3 -5 -2 -12 3 -15 5 -3 9 1 9 9 0 17 -3 19 -12 6z"/>
<path d="M4324 5038 c-16 -4 -68 -30 -114 -58 -46 -27 -87 -50 -91 -50 -4 0
-9 -3 -11 -7 -1 -5 -32 -33 -68 -63 -135 -114 -242 -248 -379 -480 -50 -85
-96 -162 -102 -170 -5 -8 -12 -23 -15 -32 -4 -10 -10 -18 -15 -18 -5 0 -9 -5
-9 -12 0 -13 -43 -80 -74 -115 -11 -13 -16 -23 -11 -23 5 0 -1 -9 -13 -20 -12
-12 -22 -24 -22 -29 0 -4 -37 -45 -83 -92 -80 -81 -137 -134 -137 -124 0 2
-11 -6 -25 -19 -14 -13 -82 -52 -152 -87 -155 -78 -177 -105 -178 -210 0 -50
4 -72 18 -86 9 -11 14 -23 10 -26 -3 -4 1 -7 11 -7 9 0 14 -4 11 -10 -3 -5 1
-10 10 -10 8 0 18 -7 21 -15 4 -9 11 -15 18 -14 32 4 39 -1 25 -18 -11 -15
-11 -16 1 -5 15 13 44 17 37 5 -3 -5 7 -9 21 -10 23 -1 80 -15 122 -31 23 -8
29 -9 51 -11 12 -1 17 -5 13 -13 -4 -7 -3 -8 5 -4 6 4 19 2 28 -6 14 -11 16
-11 8 1 -6 11 -4 13 11 6 10 -4 27 -8 37 -9 9 0 17 -3 17 -6 0 -7 20 -10 58
-10 13 0 21 -4 18 -8 -3 -5 9 -9 27 -9 18 0 44 -3 60 -6 41 -10 80 -18 102
-22 33 -5 99 -16 125 -21 40 -7 113 -16 143 -18 15 0 27 -3 27 -6 0 -3 26 -5
58 -6 43 0 56 -4 54 -14 -2 -10 0 -11 10 -2 14 11 80 14 73 2 -2 -4 2 -7 10
-7 8 0 12 3 10 7 -2 3 5 6 16 6 10 0 19 -5 19 -11 0 -6 3 -7 8 0 9 12 52 15
52 3 0 -5 9 -4 19 2 14 7 22 7 26 0 4 -6 11 -7 18 -3 16 9 58 10 63 1 3 -5 15
-3 26 3 18 10 20 9 15 -5 -3 -8 -2 -18 4 -21 5 -4 8 -1 7 7 -2 7 3 12 10 10 6
-1 12 1 12 5 0 5 23 8 50 8 28 0 50 -4 50 -9 0 -4 6 -3 14 3 11 9 15 9 19 -1
4 -10 6 -10 6 0 1 6 10 12 22 12 13 0 18 -4 14 -12 -4 -7 -1 -6 7 2 8 9 33 16
68 16 30 1 75 5 100 8 99 14 176 27 194 33 14 4 17 1 13 -9 -3 -8 1 -15 8 -15
7 0 11 6 8 14 -3 7 -1 13 3 14 38 4 63 8 89 15 17 3 37 7 45 8 9 1 21 6 28 10
8 5 18 1 26 -10 10 -13 15 -14 21 -4 6 9 4 11 -5 5 -8 -5 -11 -3 -8 6 3 8 18
14 36 13 17 0 28 4 25 9 -3 5 0 7 8 5 8 -3 22 -1 32 4 12 6 23 5 33 -3 12 -9
13 -9 9 3 -6 14 3 17 48 19 9 0 17 4 17 7 0 8 12 11 60 15 14 1 27 5 30 9 3 4
17 10 30 12 14 2 26 5 28 7 1 1 5 2 10 3 4 2 27 8 51 15 23 7 50 10 58 7 8 -3
11 -1 8 4 -4 6 7 13 24 16 17 4 31 12 31 18 0 6 5 4 10 -4 7 -11 10 -11 10 -2
0 7 4 11 9 7 5 -3 12 -1 16 5 4 6 11 8 16 5 5 -4 9 -1 9 6 0 8 4 8 16 -1 12
-11 15 -11 12 1 -2 9 5 14 20 13 12 -1 22 2 22 5 0 4 24 13 53 21 28 7 72 21
95 32 24 10 48 16 53 12 5 -3 9 0 9 6 0 6 5 8 10 5 6 -3 10 -1 10 4 0 6 3 10
8 9 8 -2 48 9 77 22 42 20 109 39 117 34 4 -3 8 0 8 5 0 6 3 10 8 9 4 -1 21 4
37 11 17 7 40 14 52 14 13 1 23 5 23 9 0 4 9 5 20 3 11 -2 18 0 15 6 -4 5 -1
10 4 10 14 2 29 6 36 9 3 1 8 3 13 5 4 1 15 5 25 9 9 5 24 5 33 2 8 -3 13 -2
10 3 -3 5 1 11 8 14 8 3 17 1 20 -6 2 -7 5 -4 5 6 1 10 5 16 10 12 5 -3 12 -1
16 5 4 6 11 8 16 4 5 -3 7 -9 4 -14 -3 -5 -1 -11 4 -15 6 -3 8 3 6 15 -2 11 0
21 6 21 15 2 23 4 61 18 21 7 43 9 49 5 8 -4 9 -3 5 4 -6 11 12 17 37 13 4 0
7 4 7 10 0 7 10 9 25 7 13 -3 22 -2 20 2 -3 5 2 11 11 14 10 4 13 2 8 -7 -4
-6 1 -4 12 5 16 14 23 15 34 5 10 -9 11 -9 6 1 -6 11 5 17 27 13 4 0 7 3 7 9
0 5 7 7 15 4 8 -4 15 -1 15 5 0 9 5 9 21 0 15 -8 19 -8 15 0 -6 10 0 13 20 10
4 0 11 5 15 13 7 10 9 10 9 0 0 -9 5 -9 23 3 12 8 32 16 42 18 11 1 25 5 30 9
15 9 78 22 93 19 6 -1 12 3 12 10 0 9 3 9 14 0 11 -10 17 -8 24 6 6 10 13 17
16 15 8 -4 78 9 91 17 6 3 15 6 20 7 39 7 100 22 100 24 0 1 9 3 20 4 35 4 69
18 88 34 9 8 17 12 17 9 0 -11 37 29 52 55 30 54 35 82 21 131 -8 26 -11 53
-7 59 4 6 3 8 -3 5 -5 -3 -22 10 -38 29 -16 19 -37 34 -47 34 -11 0 -17 4 -14
8 8 13 -45 16 -214 12 -47 -1 -87 -1 -90 -1 -3 1 -75 3 -160 6 -262 9 -280 10
-280 18 0 5 -4 5 -10 2 -5 -3 -26 -2 -45 4 -25 7 -33 6 -29 -1 4 -6 2 -8 -3
-5 -11 7 -47 13 -118 21 -22 2 -51 7 -65 10 -14 3 -43 8 -65 10 -44 6 -54 8
-165 31 -41 9 -87 16 -102 17 -16 1 -28 5 -28 9 0 3 -8 6 -17 6 -35 -1 -103
16 -103 25 0 5 -4 6 -10 3 -5 -3 -29 0 -52 6 -24 7 -50 14 -58 15 -8 2 -31 7
-50 13 -76 23 -184 53 -201 56 -10 2 -27 9 -39 15 -12 6 -24 9 -27 6 -4 -3
-11 -2 -17 2 -6 5 -31 15 -56 22 -25 7 -51 18 -57 23 -7 5 -13 7 -13 3 0 -5
-39 8 -105 34 -11 4 -60 22 -110 40 -49 18 -94 36 -100 41 -5 5 -15 9 -22 9
-7 0 -35 9 -61 21 -26 12 -58 26 -72 31 -14 6 -38 18 -55 26 -16 9 -31 15 -33
14 -2 -3 -21 5 -124 52 -32 15 -61 27 -65 27 -5 0 -16 8 -27 17 -10 9 -21 17
-25 16 -13 -1 -61 21 -61 29 0 4 -4 5 -10 2 -5 -3 -10 -1 -10 4 0 6 -3 10 -7
9 -12 -2 -46 13 -65 30 -10 8 -18 12 -18 8 0 -4 -12 1 -27 12 -25 17 -54 31
-75 37 -5 2 -10 4 -13 5 -3 1 -9 4 -15 5 -5 1 -11 4 -12 5 -7 7 -66 5 -94 -2z"/>
<path d="M9235 5009 c-4 -6 -5 -12 -2 -15 2 -3 7 2 10 11 7 17 1 20 -8 4z"/>
<path d="M8902 4949 c-18 -32 -31 -61 -30 -63 2 -2 -6 -15 -18 -28 -11 -13
-29 -42 -39 -65 -10 -24 -22 -43 -27 -43 -4 0 -7 -6 -5 -12 1 -7 -4 -12 -11
-10 -8 1 -11 -2 -7 -8 6 -10 -39 -95 -57 -107 -7 -4 -8 -1 -3 8 5 8 0 7 -11
-3 -16 -14 -23 -15 -34 -5 -8 7 -10 7 -7 1 4 -7 -3 -14 -18 -16 -16 -4 -22 -1
-18 6 4 6 -1 5 -10 -2 -9 -8 -21 -11 -27 -7 -5 3 -10 2 -10 -3 0 -5 -25 -13
-54 -19 -39 -7 -53 -6 -49 1 4 6 -1 5 -10 -2 -9 -8 -21 -11 -27 -7 -5 3 -10 1
-10 -5 0 -6 -5 -8 -10 -5 -6 4 -7 11 -4 17 4 7 2 8 -5 4 -6 -4 -9 -12 -6 -17
6 -9 -11 -12 -67 -13 -15 0 -25 -4 -22 -8 3 -4 -2 -8 -10 -8 -9 0 -16 -4 -16
-10 0 -5 5 -10 11 -10 6 0 8 -9 4 -22 -5 -18 -4 -20 4 -8 9 13 14 10 35 -15
13 -16 22 -34 19 -39 -4 -5 -2 -6 4 -3 9 6 52 -35 53 -51 1 -4 12 -13 26 -20
13 -7 24 -17 24 -23 0 -6 -5 -7 -12 -3 -7 4 -8 3 -4 -4 4 -7 15 -12 24 -12 20
0 46 -36 37 -51 -4 -5 -3 -9 2 -8 22 4 44 -2 38 -10 -3 -6 4 -15 15 -21 15 -8
19 -19 17 -45 -2 -29 -5 -34 -22 -29 -16 4 -17 3 -5 -5 8 -6 11 -11 6 -11 -6
0 -5 -5 2 -12 15 -15 16 -48 2 -48 -5 0 -10 -5 -10 -11 0 -5 6 -7 13 -3 8 5 8
2 -2 -9 -11 -14 -11 -17 0 -17 9 0 10 -3 4 -8 -5 -4 -11 -18 -12 -32 -6 -77
-8 -88 -15 -84 -4 3 -8 1 -8 -5 0 -5 5 -11 11 -13 8 -3 9 -10 2 -23 -5 -11 -9
-31 -8 -45 0 -14 -4 -28 -10 -32 -6 -5 -4 -8 5 -8 13 0 13 -1 0 -10 -24 -15
-5 -21 26 -9 16 7 32 12 37 11 4 -1 7 3 7 8 0 6 6 10 14 10 8 0 16 6 19 13 3
8 10 6 20 -8 16 -20 16 -20 10 3 -4 18 -2 21 12 15 14 -5 16 -3 10 8 -7 11 -5
11 10 -1 10 -8 16 -10 13 -5 -3 6 0 16 8 23 8 7 14 10 14 7 0 -3 17 3 39 14
21 11 41 17 45 14 3 -4 6 -1 6 6 0 7 5 9 10 6 6 -3 10 -2 10 3 0 13 48 33 55
23 2 -5 -7 -12 -21 -15 -17 -5 -24 -12 -22 -24 2 -9 10 -16 16 -15 14 4 15 -3
3 -26 -7 -13 -6 -18 4 -18 7 0 11 7 7 15 -4 11 -1 13 7 7 10 -6 11 -3 1 14 -6
12 -15 19 -21 16 -5 -4 -9 -1 -9 5 0 6 12 15 26 20 14 6 28 19 31 29 5 19 18
22 41 8 6 -5 12 -5 12 -1 0 4 9 -1 21 -12 12 -10 22 -18 23 -16 3 7 42 -13 54
-27 8 -9 10 -10 7 -2 -5 9 0 8 18 -4 14 -9 30 -17 34 -17 21 -2 63 -25 56 -31
-3 -4 5 -7 19 -7 15 0 32 -9 42 -22 14 -21 15 -21 10 -3 l-6 20 17 -20 c9 -11
18 -19 20 -17 16 8 36 0 32 -13 -4 -8 -2 -17 4 -20 5 -4 8 -1 7 7 -2 7 2 12 9
11 8 -2 11 8 8 30 -2 17 -7 52 -10 77 -3 25 -8 51 -10 58 -2 6 1 12 7 12 6 0
3 8 -6 19 -11 12 -13 20 -6 23 8 2 8 11 0 33 -6 16 -12 59 -13 97 -1 37 -5 68
-9 68 -5 0 -8 7 -8 17 0 14 2 14 20 -2 14 -13 24 -15 31 -8 7 7 4 14 -8 24
-17 13 -17 13 -3 -5 13 -17 13 -19 0 -14 -8 2 -16 14 -18 26 -3 21 6 26 35 23
6 -1 9 7 6 18 -2 10 0 22 6 25 7 5 9 0 6 -11 -3 -10 1 -6 8 9 21 45 69 90 80
76 6 -9 7 -7 4 7 -4 21 16 49 27 38 3 -4 6 0 6 7 0 7 10 23 23 35 66 67 100
108 86 103 -9 -4 -22 -1 -29 5 -10 9 -11 9 -6 0 4 -7 2 -13 -3 -13 -6 0 -11 4
-11 9 0 5 -8 8 -17 6 -10 -1 -29 4 -42 12 -13 8 -21 10 -17 5 4 -6 -2 -10 -13
-9 -11 0 -18 4 -16 7 2 4 -11 7 -29 8 -48 2 -59 5 -74 22 -8 8 -11 9 -7 3 7
-14 -4 -16 -29 -7 -14 5 -14 9 -4 23 12 14 11 15 -6 1 -20 -16 -66 -22 -66 -8
0 4 -11 8 -25 8 -14 0 -25 5 -25 10 0 6 -5 10 -11 10 -5 0 -7 -4 -4 -10 3 -5
2 -10 -3 -10 -6 0 -13 7 -16 16 -4 10 -2 13 7 9 6 -4 4 0 -6 8 -10 8 -19 24
-20 35 0 11 -6 20 -12 19 -5 -1 -9 4 -7 11 1 6 -3 12 -9 12 -5 0 -8 4 -4 9 3
5 1 13 -5 16 -6 4 -18 24 -26 46 -9 22 -21 36 -27 32 -5 -3 -7 -1 -3 5 3 6 1
14 -5 17 -5 4 -8 14 -5 22 4 9 2 11 -6 7 -8 -5 -9 -2 -5 10 4 9 3 15 -1 13
-12 -8 -29 14 -38 51 -4 12 -11 22 -16 22 -5 0 -7 3 -5 8 3 4 0 12 -7 18 -9 8
-20 -3 -44 -47z"/>
<path d="M16985 4920 c-3 -6 1 -7 9 -4 18 7 21 14 7 14 -6 0 -13 -4 -16 -10z"/>
<path d="M6276 4887 c3 -10 9 -15 12 -12 3 3 0 11 -7 18 -10 9 -11 8 -5 -6z"/>
<path d="M9233 4885 c0 -8 4 -12 9 -9 5 3 6 10 3 15 -9 13 -12 11 -12 -6z"/>
<path d="M9320 4880 c-9 -6 -10 -10 -3 -10 6 0 15 5 18 10 8 12 4 12 -15 0z"/>
<path d="M9073 4845 c0 -8 4 -15 9 -15 4 0 8 4 8 9 0 6 -4 12 -8 15 -5 3 -9
-1 -9 -9z"/>
<path d="M8655 4821 c-3 -5 -2 -12 3 -15 5 -3 9 1 9 9 0 17 -3 19 -12 6z"/>
<path d="M9130 4820 c0 -5 5 -10 11 -10 5 0 7 5 4 10 -3 6 -8 10 -11 10 -2 0
-4 -4 -4 -10z"/>
<path d="M9170 4820 c0 -5 5 -10 11 -10 5 0 7 5 4 10 -3 6 -8 10 -11 10 -2 0
-4 -4 -4 -10z"/>
<path d="M8540 4806 c0 -2 8 -10 18 -17 15 -13 16 -12 3 4 -13 16 -21 21 -21
13z"/>
<path d="M8596 4802 c-3 -5 1 -9 9 -9 8 0 12 4 9 9 -3 4 -7 8 -9 8 -2 0 -6 -4
-9 -8z"/>
<path d="M8750 4801 c0 -6 4 -13 10 -16 6 -3 7 1 4 9 -7 18 -14 21 -14 7z"/>
<path d="M16866 4802 c-2 -4 4 -8 14 -8 10 0 16 4 14 8 -3 4 -9 8 -14 8 -5 0
-11 -4 -14 -8z"/>
<path d="M8789 4783 c-13 -16 -12 -17 4 -4 16 13 21 21 13 21 -2 0 -10 -8 -17
-17z"/>
<path d="M9110 4796 c0 -2 8 -10 18 -17 15 -13 16 -12 3 4 -13 16 -21 21 -21
13z"/>
<path d="M8693 4775 c0 -8 4 -12 9 -9 5 3 6 10 3 15 -9 13 -12 11 -12 -6z"/>
<path d="M7156 4727 c3 -10 9 -15 12 -12 3 3 0 11 -7 18 -10 9 -11 8 -5 -6z"/>
<path d="M8736 4727 c3 -10 9 -15 12 -12 3 3 0 11 -7 18 -10 9 -11 8 -5 -6z"/>
<path d="M9137 4719 c4 -13 8 -18 11 -10 2 7 -1 18 -6 23 -8 8 -9 4 -5 -13z"/>
<path d="M7426 4722 c-3 -5 1 -9 9 -9 8 0 12 4 9 9 -3 4 -7 8 -9 8 -2 0 -6 -4
-9 -8z"/>
<path d="M8650 4721 c0 -6 4 -13 10 -16 6 -3 7 1 4 9 -7 18 -14 21 -14 7z"/>
<path d="M8696 4713 c-6 -14 -5 -15 5 -6 7 7 10 15 7 18 -3 3 -9 -2 -12 -12z"/>
<path d="M9330 4700 c0 -5 5 -10 11 -10 5 0 7 5 4 10 -3 6 -8 10 -11 10 -2 0
-4 -4 -4 -10z"/>
<path d="M8586 4681 c-5 -7 60 -8 67 -1 3 3 -10 6 -29 6 -19 1 -36 -1 -38 -5z"/>
<path d="M8677 4672 c-15 -16 -15 -19 -2 -19 8 0 13 3 10 5 -3 3 0 11 6 19 17
20 5 16 -14 -5z"/>
<path d="M8710 4670 c-8 -15 -8 -18 3 -14 8 3 14 11 14 19 0 20 -4 19 -17 -5z"/>
<path d="M9156 4675 c-3 -8 -1 -15 4 -15 6 0 10 7 10 15 0 8 -2 15 -4 15 -2 0
-6 -7 -10 -15z"/>
<path d="M9274 4666 c1 -8 5 -18 8 -22 4 -3 5 1 4 10 -1 8 -5 18 -8 22 -4 3
-5 -1 -4 -10z"/>
<path d="M16655 4671 c-3 -5 -2 -12 3 -15 5 -3 9 1 9 9 0 17 -3 19 -12 6z"/>
<path d="M8453 4655 c0 -8 4 -12 9 -9 5 3 6 10 3 15 -9 13 -12 11 -12 -6z"/>
<path d="M9330 4660 c0 -5 5 -10 11 -10 5 0 7 5 4 10 -3 6 -8 10 -11 10 -2 0
-4 -4 -4 -10z"/>
<path d="M9413 4655 c0 -8 4 -12 9 -9 5 3 6 10 3 15 -9 13 -12 11 -12 -6z"/>
<path d="M8635 4650 c-4 -6 -10 -8 -14 -6 -4 3 -8 -1 -8 -9 0 -13 4 -12 19 2
18 16 22 23 14 23 -3 0 -8 -5 -11 -10z"/>
<path d="M9190 4641 c0 -10 19 -25 25 -20 1 2 -3 10 -11 17 -8 7 -14 8 -14 3z"/>
<path d="M9233 4635 c0 -8 4 -12 9 -9 5 3 6 10 3 15 -9 13 -12 11 -12 -6z"/>
<path d="M8450 4620 c0 -5 5 -10 11 -10 5 0 7 5 4 10 -3 6 -8 10 -11 10 -2 0
-4 -4 -4 -10z"/>
<path d="M9437 4613 c-10 -9 -9 -23 1 -23 5 0 9 7 9 15 0 17 -1 18 -10 8z"/>
<path d="M9553 4455 c0 -8 4 -12 9 -9 5 3 6 10 3 15 -9 13 -12 11 -12 -6z"/>
<path d="M8336 4382 c-3 -5 1 -9 9 -9 8 0 12 4 9 9 -3 4 -7 8 -9 8 -2 0 -6 -4
-9 -8z"/>
<path d="M8369 4363 c-13 -16 -12 -17 4 -4 16 13 21 21 13 21 -2 0 -10 -8 -17
-17z"/>
<path d="M9478 4373 c7 -3 16 -2 19 1 4 3 -2 6 -13 5 -11 0 -14 -3 -6 -6z"/>
<path d="M9475 4349 c-4 -6 -5 -12 -2 -15 2 -3 7 2 10 11 7 17 1 20 -8 4z"/>
<path d="M8394 4343 c3 -4 0 -13 -6 -22 -10 -12 -7 -12 8 2 11 9 23 16 25 15
2 -2 3 -1 1 1 -1 3 -10 6 -18 7 -9 1 -13 0 -10 -3z"/>
<path d="M9512 4331 c7 -9 13 -18 15 -20 1 -2 1 5 0 16 0 11 -7 20 -14 20 -10
0 -10 -4 -1 -16z"/>
<path d="M16210 4345 c0 -5 5 -17 10 -25 5 -8 10 -10 10 -5 0 6 -5 17 -10 25
-5 8 -10 11 -10 5z"/>
<path d="M9421 4316 c-9 -10 -6 -17 13 -30 14 -9 29 -16 33 -16 4 0 -5 9 -20
19 -18 11 -25 21 -18 25 6 4 16 4 23 0 7 -4 8 -3 4 4 -10 16 -21 15 -35 -2z"/>
<path d="M9490 4321 c0 -6 4 -13 10 -16 6 -3 7 1 4 9 -7 18 -14 21 -14 7z"/>
<path d="M9630 4320 c0 -5 5 -10 11 -10 5 0 7 5 4 10 -3 6 -8 10 -11 10 -2 0
-4 -4 -4 -10z"/>
<path d="M9466 4303 c-6 -14 -5 -15 5 -6 7 7 10 15 7 18 -3 3 -9 -2 -12 -12z"/>
<path d="M8427 4299 c7 -7 15 -10 18 -7 3 3 -2 9 -12 12 -14 6 -15 5 -6 -5z"/>
<path d="M8461 4297 c2 -1 13 -9 24 -17 19 -14 19 -14 6 3 -7 9 -18 17 -24 17
-6 0 -8 -1 -6 -3z"/>
<path d="M9394 4280 c0 -13 4 -16 10 -10 7 7 7 13 0 20 -6 6 -10 3 -10 -10z"/>
<path d="M9676 4287 c3 -10 9 -15 12 -12 3 3 0 11 -7 18 -10 9 -11 8 -5 -6z"/>
<path d="M9486 4282 c-3 -5 1 -9 9 -9 8 0 12 4 9 9 -3 4 -7 8 -9 8 -2 0 -6 -4
-9 -8z"/>
<path d="M9550 4286 c0 -2 7 -7 16 -10 8 -3 12 -2 9 4 -6 10 -25 14 -25 6z"/>
<path d="M8470 4263 c7 -3 5 -13 -7 -27 -9 -11 -11 -16 -4 -9 10 9 20 9 35 2
21 -10 21 -10 1 6 -11 9 -19 19 -17 23 2 3 -1 7 -7 9 -8 1 -8 0 -1 -4z"/>
<path d="M9415 4260 c-3 -6 1 -7 9 -4 18 7 21 14 7 14 -6 0 -13 -4 -16 -10z"/>
<path d="M9513 4245 c0 -8 4 -12 9 -9 5 3 6 10 3 15 -9 13 -12 11 -12 -6z"/>
<path d="M9392 4230 c7 -10 14 -18 15 -16 6 6 -9 36 -18 36 -5 0 -4 -9 3 -20z"/>
<path d="M9339 4218 c15 -20 36 -23 46 -9 3 5 0 13 -6 17 -8 4 -9 3 -5 -4 10
-16 -16 -15 -34 1 -12 10 -12 9 -1 -5z"/>
<path d="M8530 4218 c0 -2 9 -11 20 -21 11 -9 20 -13 20 -7 0 5 -9 14 -20 20
-11 6 -20 9 -20 8z"/>
<path d="M9473 4205 c0 -8 4 -12 9 -9 5 3 6 10 3 15 -9 13 -12 11 -12 -6z"/>
<path d="M8420 4206 c0 -2 8 -10 18 -17 15 -13 16 -12 3 4 -13 16 -21 21 -21
13z"/>
<path d="M9535 4200 c-3 -5 -1 -10 4 -10 6 0 11 5 11 10 0 6 -2 10 -4 10 -3 0
-8 -4 -11 -10z"/>
<path d="M9390 4189 c0 -5 -6 -7 -12 -3 -7 4 -10 3 -5 -1 4 -5 16 -9 27 -10
15 -1 17 1 9 12 -14 16 -19 17 -19 2z"/>
<path d="M8530 4180 c-9 -6 -10 -10 -3 -10 6 0 15 5 18 10 8 12 4 12 -15 0z"/>
<path d="M8433 4155 c0 -8 4 -12 9 -9 5 3 6 10 3 15 -9 13 -12 11 -12 -6z"/>
<path d="M8480 4160 c-12 -7 -10 -9 8 -7 12 0 22 5 22 9 0 11 -12 10 -30 -2z"/>
<path d="M9352 4158 c2 -6 10 -13 16 -14 7 -1 8 0 2 3 -5 2 -8 9 -4 14 3 5 0
9 -6 9 -7 0 -10 -5 -8 -12z"/>
<path d="M8374 4136 c1 -8 5 -18 8 -22 4 -3 5 1 4 10 -1 8 -5 18 -8 22 -4 3
-5 -1 -4 -10z"/>
<path d="M9315 4139 c-11 -16 -1 -19 13 -3 7 8 8 14 3 14 -5 0 -13 -5 -16 -11z"/>
<path d="M9393 4133 c0 -9 4 -10 14 -2 7 6 13 12 13 14 0 1 -6 2 -13 2 -8 0
-14 -6 -14 -14z"/>
<path d="M9494 4136 c1 -8 5 -18 8 -22 4 -3 5 1 4 10 -1 8 -5 18 -8 22 -4 3
-5 -1 -4 -10z"/>
<path d="M8480 4126 c0 -2 8 -10 18 -17 15 -13 16 -12 3 4 -13 16 -21 21 -21
13z"/>
<path d="M9330 4115 c0 -8 2 -15 4 -15 2 0 6 7 10 15 3 8 1 15 -4 15 -6 0 -10
-7 -10 -15z"/>
<path d="M9350 4098 c0 -4 4 -8 9 -8 6 0 12 4 15 8 3 5 -1 9 -9 9 -8 0 -15 -4
-15 -9z"/>
<path d="M9450 4099 c0 -5 5 -7 10 -4 6 3 10 8 10 11 0 2 -4 4 -10 4 -5 0 -10
-5 -10 -11z"/>
<path d="M9416 4087 c3 -10 9 -15 12 -12 3 3 0 11 -7 18 -10 9 -11 8 -5 -6z"/>
<path d="M8355 4080 c3 -5 8 -10 11 -10 2 0 4 5 4 10 0 6 -5 10 -11 10 -5 0
-7 -4 -4 -10z"/>
<path d="M8415 4060 c3 -5 8 -10 11 -10 2 0 4 5 4 10 0 6 -5 10 -11 10 -5 0
-7 -4 -4 -10z"/>
<path d="M9450 4059 c0 -5 5 -7 10 -4 6 3 10 8 10 11 0 2 -4 4 -10 4 -5 0 -10
-5 -10 -11z"/>
<path d="M9330 4050 c-9 -6 -10 -10 -3 -10 6 0 15 5 18 10 8 12 4 12 -15 0z"/>
<path d="M9371 4044 c0 -11 3 -14 6 -6 3 7 2 16 -1 19 -3 4 -6 -2 -5 -13z"/>
<path d="M8476 4033 c-6 -14 -5 -15 5 -6 7 7 10 15 7 18 -3 3 -9 -2 -12 -12z"/>
<path d="M9427 4039 c7 -7 15 -10 18 -7 3 3 -2 9 -12 12 -14 6 -15 5 -6 -5z"/>
<path d="M9475 4031 c-3 -5 -2 -12 3 -15 5 -3 9 1 9 9 0 17 -3 19 -12 6z"/>
<path d="M9373 4005 c0 -8 4 -15 9 -15 4 0 8 4 8 9 0 6 -4 12 -8 15 -5 3 -9
-1 -9 -9z"/>
<path d="M8475 4000 c-3 -5 -1 -10 4 -10 6 0 11 5 11 10 0 6 -2 10 -4 10 -3 0
-8 -4 -11 -10z"/>
<path d="M8515 3990 c10 -11 20 -20 23 -20 3 0 -3 9 -13 20 -10 11 -20 20 -23
20 -3 0 3 -9 13 -20z"/>
<path d="M11153 3995 c0 -8 4 -12 9 -9 5 3 6 10 3 15 -9 13 -12 11 -12 -6z"/>
<path d="M9456 3978 c3 -5 10 -6 15 -3 13 9 11 12 -6 12 -8 0 -12 -4 -9 -9z"/>
<path d="M9350 3955 c5 -7 6 -16 2 -21 -4 -5 -3 -5 2 -1 15 12 15 34 0 34 -9
0 -11 -4 -4 -12z"/>
<path d="M8435 3940 c3 -5 8 -10 11 -10 2 0 4 5 4 10 0 6 -5 10 -11 10 -5 0
-7 -4 -4 -10z"/>
<path d="M9387 3939 c7 -7 15 -10 18 -7 3 3 -2 9 -12 12 -14 6 -15 5 -6 -5z"/>
<path d="M8356 3913 c-6 -14 -5 -15 5 -6 7 7 10 15 7 18 -3 3 -9 -2 -12 -12z"/>
<path d="M8944 3922 c3 -5 0 -12 -6 -15 -7 -2 -10 -7 -7 -11 3 -4 12 0 18 8 9
11 9 16 0 22 -7 4 -9 3 -5 -4z"/>
<path d="M8970 3911 c0 -5 5 -13 10 -16 6 -3 10 -2 10 4 0 5 -4 13 -10 16 -5
3 -10 2 -10 -4z"/>
<path d="M8496 3902 c-3 -5 1 -9 9 -9 8 0 12 4 9 9 -3 4 -7 8 -9 8 -2 0 -6 -4
-9 -8z"/>
<path d="M9435 3889 c-4 -6 -5 -12 -2 -15 2 -3 7 2 10 11 7 17 1 20 -8 4z"/>
<path d="M8901 3880 c-9 -5 -4 -7 13 -7 29 0 32 2 13 10 -8 3 -20 2 -26 -3z"/>
<path d="M9010 3880 c0 -5 5 -10 10 -10 6 0 10 5 10 10 0 6 -4 10 -10 10 -5 0
-10 -4 -10 -10z"/>
<path d="M8830 3863 c0 -6 8 -17 18 -24 16 -13 16 -13 2 6 -8 11 -16 22 -17
24 -2 2 -3 0 -3 -6z"/>
<path d="M8950 3860 c0 -5 5 -10 10 -10 6 0 10 5 10 10 0 6 -4 10 -10 10 -5 0
-10 -4 -10 -10z"/>
<path d="M9034 3859 c-3 -6 -1 -16 5 -22 9 -9 10 -7 5 7 -6 15 -4 17 6 11 9
-5 11 -4 6 3 -9 15 -13 15 -22 1z"/>
<path d="M15253 3855 c0 -8 4 -12 9 -9 5 3 6 10 3 15 -9 13 -12 11 -12 -6z"/>
<path d="M8985 3847 c-15 -12 -16 -15 -4 -22 8 -5 11 -5 7 0 -4 4 0 14 10 21
23 18 11 18 -13 1z"/>
<path d="M8796 3842 c-3 -5 1 -9 9 -9 8 0 15 4 15 9 0 4 -4 8 -9 8 -6 0 -12
-4 -15 -8z"/>
<path d="M8933 3835 c0 -7 6 -11 14 -8 7 3 13 6 13 8 0 2 -6 5 -13 8 -8 3 -14
-1 -14 -8z"/>
<path d="M9067 3830 c-3 -11 -3 -20 -1 -20 2 0 8 9 14 20 6 11 7 20 2 20 -6 0
-12 -9 -15 -20z"/>
<path d="M9126 3837 c3 -10 9 -15 12 -12 3 3 0 11 -7 18 -10 9 -11 8 -5 -6z"/>
<path d="M8750 3831 c0 -7 -5 -9 -12 -5 -7 5 -8 3 -3 -5 5 -9 10 -10 18 -2 6
6 8 14 4 18 -4 3 -7 1 -7 -6z"/>
<path d="M8773 3823 c4 -6 2 -13 -4 -15 -7 -2 -6 -8 3 -16 12 -9 14 -8 13 8
-1 11 -5 23 -10 27 -4 5 -5 3 -2 -4z"/>
<path d="M8830 3821 c0 -6 4 -13 10 -16 6 -3 7 1 4 9 -7 18 -14 21 -14 7z"/>
<path d="M8999 3823 c0 -5 -2 -16 -4 -26 -2 -11 -1 -16 3 -13 8 8 14 46 7 46
-3 0 -5 -3 -6 -7z"/>
<path d="M9150 3821 c0 -6 4 -13 10 -16 6 -3 7 1 4 9 -7 18 -14 21 -14 7z"/>
<path d="M8710 3788 c-12 -22 -12 -22 6 -6 10 10 15 20 12 24 -4 3 -12 -5 -18
-18z"/>
<path d="M8913 3790 c1 -21 10 -18 13 5 1 8 -2 15 -6 15 -5 0 -8 -9 -7 -20z"/>
<path d="M15270 3799 c0 -5 5 -7 10 -4 6 3 10 8 10 11 0 2 -4 4 -10 4 -5 0
-10 -5 -10 -11z"/>
<path d="M9114 3775 c0 -13 3 -22 7 -19 8 4 6 30 -2 38 -3 3 -5 -5 -5 -19z"/>
<path d="M8830 3776 c7 -7 13 -7 20 0 6 6 3 10 -10 10 -13 0 -16 -4 -10 -10z"/>
<path d="M9150 3776 c7 -7 13 -7 20 0 6 6 3 10 -10 10 -13 0 -16 -4 -10 -10z"/>
<path d="M8633 3765 c0 -8 4 -12 9 -9 5 3 6 10 3 15 -9 13 -12 11 -12 -6z"/>
<path d="M8756 3767 c3 -10 9 -15 12 -12 3 3 0 11 -7 18 -10 9 -11 8 -5 -6z"/>
<path d="M14950 3760 c0 -5 5 -10 11 -10 5 0 7 5 4 10 -3 6 -8 10 -11 10 -2 0
-4 -4 -4 -10z"/>
<path d="M8640 3740 c-9 -6 -10 -10 -3 -10 6 0 15 5 18 10 8 12 4 12 -15 0z"/>
<path d="M9196 3738 c3 -5 10 -6 15 -3 13 9 11 12 -6 12 -8 0 -12 -4 -9 -9z"/>
<path d="M9030 3736 c0 -2 8 -10 18 -17 15 -13 16 -12 3 4 -13 16 -21 21 -21
13z"/>
<path d="M8913 3715 c0 -8 4 -12 9 -9 5 3 6 10 3 15 -9 13 -12 11 -12 -6z"/>
<path d="M12210 3721 c0 -6 4 -13 10 -16 6 -3 7 1 4 9 -7 18 -14 21 -14 7z"/>
<path d="M9155 3709 c-4 -6 -5 -12 -2 -15 2 -3 7 2 10 11 7 17 1 20 -8 4z"/>
<path d="M8630 3705 c0 -7 30 -13 34 -7 3 4 -4 9 -15 9 -10 1 -19 0 -19 -2z"/>
<path d="M8695 3700 c3 -5 8 -10 11 -10 2 0 4 5 4 10 0 6 -5 10 -11 10 -5 0
-7 -4 -4 -10z"/>
<path d="M9194 3702 c4 -3 14 -7 22 -8 9 -1 13 0 10 4 -4 3 -14 7 -22 8 -9 1
-13 0 -10 -4z"/>
<path d="M8596 3678 c3 -5 10 -6 15 -3 13 9 11 12 -6 12 -8 0 -12 -4 -9 -9z"/>
<path d="M14395 3651 c-3 -5 -2 -12 3 -15 5 -3 9 1 9 9 0 17 -3 19 -12 6z"/>
<path d="M9240 3640 c-9 -6 -10 -10 -3 -10 6 0 15 5 18 10 8 12 4 12 -15 0z"/>
<path d="M14135 3621 c-3 -5 -2 -12 3 -15 5 -3 9 1 9 9 0 17 -3 19 -12 6z"/>
<path d="M8906 3518 c3 -5 10 -6 15 -3 13 9 11 12 -6 12 -8 0 -12 -4 -9 -9z"/>
<path d="M6476 3478 c3 -5 10 -6 15 -3 13 9 11 12 -6 12 -8 0 -12 -4 -9 -9z"/>
<path d="M6226 3442 c-3 -5 1 -9 9 -9 8 0 12 4 9 9 -3 4 -7 8 -9 8 -2 0 -6 -4
-9 -8z"/>
<path d="M5533 3215 c0 -8 4 -12 9 -9 5 3 6 10 3 15 -9 13 -12 11 -12 -6z"/>
<path d="M5390 3183 c0 -6 8 -17 18 -24 16 -13 16 -13 2 6 -8 11 -16 22 -17
24 -2 2 -3 0 -3 -6z"/>
<path d="M5636 3162 c-3 -5 1 -9 9 -9 8 0 12 4 9 9 -3 4 -7 8 -9 8 -2 0 -6 -4
-9 -8z"/>
<path d="M4995 3080 c-3 -5 -1 -10 4 -10 6 0 11 5 11 10 0 6 -2 10 -4 10 -3 0
-8 -4 -11 -10z"/>
<path d="M4406 3022 c-3 -5 1 -9 9 -9 8 0 12 4 9 9 -3 4 -7 8 -9 8 -2 0 -6 -4
-9 -8z"/>
<path d="M4466 2962 c-3 -5 1 -9 9 -9 8 0 12 4 9 9 -3 4 -7 8 -9 8 -2 0 -6 -4
-9 -8z"/>
</g>
</svg>
